<svg version="1" xmlns="http://www.w3.org/2000/svg" width="88" height="88" viewBox="0 0 880 880" preserveAspectRatio="xMidYMid meet"><g id="big-play-symbol"><path d="M290 860 c-115 -42 -209 -130 -262 -245 -20 -44 -23 -66 -23 -175 0 -114 2 -130 26 -180 29 -61 103 -160 120 -160 6 0 27 -13 45 -30 19 -16 53 -34 76 -40 24 -6 59 -15 80 -21 20 -7 74 -10 125 -7 73 4 99 10 156 37 88 42 165 119 209 208 32 66 33 72 33 193 0 114 -3 130 -26 180 -45 96 -97 150 -195 205 l-89 49 -110 3 c-91 3 -120 0 -165 -17z m288 -42 c103 -38 222 -145 254 -228 29 -76 28 -208 -4 -283 -32 -78 -96 -156 -161 -198 -87 -56 -142 -72 -245 -67 -74 2 -98 8 -153 35 -36 18 -83 52 -106 75 -110 117 -112 119 -118 167 -3 25 -10 71 -14 101 -5 29 -5 61 0 70 4 8 15 38 24 66 9 28 30 73 48 99 18 26 41 62 52 79 24 38 46 56 105 80 92 39 219 41 318 4z"/><path d="M292 720 c-114 -58 -172 -153 -172 -285 0 -132 58 -227 172 -285 88 -44 198 -44 286 0 114 58 172 153 172 286 0 70 -4 89 -30 142 -58 114 -153 172 -286 172 -70 0 -89 -4 -142 -30z m238 -280 c0 -5 -135 -80 -145 -80 -3 0 -5 38 -5 84 l0 84 75 -41 c41 -23 75 -44 75 -47z"/></g></svg>
