<svg xmlns="http://www.w3.org/2000/svg" width="50" height="50" viewBox="0 0 50 50"><path "file" d="M25 0C11.193 0 0 11.193 0 25s11.193 25 25 25 25-11.193 25-25S38.807 0 25 0zm10.422 33.766c-1.216.926-2.573 1.417-4.11 1.215-1.907-.25-2.72-2.522-1.48-3.98 1.61-1.887 2.766-1.97 5.27-1.19V17.417L21.66 21.995s-.005 5.423.03 10.497c.007 1.222-1.45 3.146-2.388 3.86-1.19.905-2.522 1.396-4.035 1.23-.83-.09-1.56-.42-1.918-1.236-.37-.84-.158-2.155.404-2.762 1.54-1.66 3.48-1.933 5.782-1.305.12.032.246.052.486.102v-.79c0-5.048-.016-13.358-.016-13.358L36.8 12.386s-.013 12.807.016 18.525c.005 1.218-.45 2.138-1.394 2.856z"/></svg>