<?xml version="1.0" encoding="utf-8"?>
<!-- Generator: Adobe Illustrator 17.0.0, SVG Export Plug-In . SVG Version: 6.00 Build 0)  -->
<!DOCTYPE svg PUBLIC "-//W3C//DTD SVG 1.1//EN" "http://www.w3.org/Graphics/SVG/1.1/DTD/svg11.dtd">
<svg version="1.1" id="Camada_1" xmlns="http://www.w3.org/2000/svg" xmlns:xlink="http://www.w3.org/1999/xlink" x="0px" y="0px"
	 width="50px" height="50px" viewBox="0 0 50 50" enable-background="new 0 0 50 50" xml:space="preserve">
<path d="M25,0C11.193,0,0,11.193,0,25s11.193,25,25,25s25-11.193,25-25S38.807,0,25,0z M31.102,19.915l-0.254,4.449H26.78V40h-5.593
	V24.492h-2.669v-4.449h2.797v-3.051c0-1.398,0-3.432,0.89-4.703c0.89-1.398,2.161-2.288,4.322-2.288
	c3.432,0,4.958,0.508,4.958,0.508l-0.636,4.576c0,0-1.144-0.381-2.161-0.381s-2.034,0.381-2.034,1.653v3.559h4.448V19.915z"/>
</svg>
