<?xml version="1.0" encoding="utf-8"?>
<!-- Generator: Adobe Illustrator 17.0.0, SVG Export Plug-In . SVG Version: 6.00 Build 0)  -->
<!DOCTYPE svg PUBLIC "-//W3C//DTD SVG 1.1//EN" "http://www.w3.org/Graphics/SVG/1.1/DTD/svg11.dtd">
<svg version="1.1" id="Camada_1" xmlns="http://www.w3.org/2000/svg" xmlns:xlink="http://www.w3.org/1999/xlink" x="0px" y="0px"
	 width="50px" height="50px" viewBox="0 0 50 50" enable-background="new 0 0 50 50" xml:space="preserve">
<g>
	<path d="M36.625,16.25C36.375,15.5,36,15,35.5,14.5s-1-0.875-1.75-1.125c-0.5-0.25-1.25-0.375-2.75-0.5s-2-0.125-6-0.125h-6
		c-1.5,0.125-2.375,0.375-2.875,0.5c-0.625,0.375-1.125,0.625-1.75,1.125c-0.5,0.5-0.875,1-1.125,1.75
		c-0.125,0.5-0.375,1.375-0.375,2.875c-0.125,1.5-0.125,2-0.125,6s0,4.375,0.125,6c0,1.375,0.25,2.25,0.5,2.75
		C13.625,34.5,14,35,14.5,35.5s1,0.875,1.75,1.125c0.5,0.25,1.25,0.375,2.75,0.5s2,0.125,6,0.125s4.375,0,6-0.125
		c1.375,0,2.25-0.25,2.75-0.5C34.5,36.375,35,36,35.5,35.5s0.875-1,1.125-1.75c0.25-0.5,0.375-1.25,0.5-2.75s0.125-2,0.125-6
		s0-4.375-0.125-6C37.125,17.625,36.875,16.75,36.625,16.25z M25,32.75c-4.25,0-7.75-3.5-7.75-7.75s3.5-7.75,7.75-7.75
		s7.75,3.5,7.75,7.75S29.25,32.75,25,32.75z M33,18.75c-1,0-1.75-0.75-1.75-1.75S32,15.25,33,15.25S34.75,16,34.75,17
		S34,18.75,33,18.75z"/>
	<path d="M25,20c-2.75,0-5,2.25-5,5s2.25,5,5,5s5-2.25,5-5S27.75,20,25,20z"/>
	<path d="M25,0C11.193,0,0,11.193,0,25s11.193,25,25,25s25-11.193,25-25S38.807,0,25,0z M39.875,31.125
		c-0.125,1.625-0.375,2.625-0.75,3.625s-0.875,1.75-1.75,2.625c-0.75,0.875-1.625,1.375-2.625,1.75s-2,0.625-3.625,0.75
		C29.625,40,29.125,40,25,40h-6.25c-1.625-0.125-2.625-0.375-3.625-0.75s-1.75-0.875-2.625-1.75s-1.375-1.75-1.625-2.75
		c-0.375-1-0.625-2-0.75-3.625C10,29.625,10,29.125,10,25s0-4.625,0.125-6.125c0-1.625,0.25-2.75,0.625-3.75
		c0.375-0.875,0.875-1.75,1.75-2.625s1.75-1.375,2.625-1.75c1-0.375,2.125-0.625,3.75-0.625C20.375,10,20.875,10,25,10h6.25
		c1.625,0.125,2.625,0.375,3.625,0.75s1.75,0.875,2.625,1.75s1.375,1.75,1.625,2.75c0.375,1,0.625,2,0.75,3.625
		C40,20.375,40,20.875,40,25S40,29.625,39.875,31.125z"/>
</g>
</svg>
