<?xml version="1.0" encoding="utf-8"?>
<!-- Generator: Adobe Illustrator 17.0.0, SVG Export Plug-In . SVG Version: 6.00 Build 0)  -->
<!DOCTYPE svg PUBLIC "-//W3C//DTD SVG 1.1//EN" "http://www.w3.org/Graphics/SVG/1.1/DTD/svg11.dtd">
<svg version="1.1" id="Camada_1" xmlns="http://www.w3.org/2000/svg" xmlns:xlink="http://www.w3.org/1999/xlink" x="0px" y="0px"
	 width="12.333px" height="15.559px" viewBox="0 0 12.333 15.559" enable-background="new 0 0 12.333 15.559" xml:space="preserve">
<path d="M9.962,5.977H8.065V3.131c0-0.759-0.854-1.423-1.897-1.423c-1.044,0-1.897,0.664-1.897,1.423v2.846H2.374V3.131
	C2.374,1.423,4.082,0,6.169,0s3.795,1.423,3.795,3.131v2.846H9.962z M12.333,13.559c0,1.105-0.895,2-2,2H2c-1.105,0-2-0.895-2-2
	V7.977c0-1.105,0.895-2,2-2h8.333c1.105,0,2,0.895,2,2V13.559z"/>
</svg>
