<svg xmlns="http://www.w3.org/2000/svg" viewBox="0 0 86.2 50.7"><path fill="#FFF" d="M19.1 42.1c-1.9 2.1-4.8 3.2-8.8 3.2H.4V6.1h10.7c2.8 0 5 .7 6.6 2 1.6 1.3 2.4 3.2 2.4 5.6 0 2.3-.5 4-1.4 5.3-.9 1.2-2.3 2-4.3 2.4 2.4.4 4.3 1.6 5.6 3.5 1.3 1.9 2 4.3 2 7.3 0 4.4-1 7.7-2.9 9.9zm-7-30.7c-.7-.7-1.8-1-3.3-1h-.6v9.1h.7c1.4 0 2.5-.4 3.2-1.3.8-.9 1.1-2 1.1-3.5s-.4-2.6-1.1-3.3zm.9 14.3c-.8-1.3-2.2-1.9-4-1.9h-.8v17.1h.7c2.1 0 3.5-.7 4.2-2.1.8-1.4 1.1-3.8 1.1-7.1 0-2.7-.4-4.8-1.2-6zM77.9 45.2v-21h-6.2v21h-7.8V16.4c0-3.5.9-6.1 2.8-7.9 1.9-1.9 4.6-2.8 8.1-2.8 3.8 0 6.6.9 8.3 2.6 1.7 1.7 2.6 4.4 2.6 8.1v28.8h-7.8zm0-30.4c0-1.6-.2-2.8-.7-3.5-.5-.7-1.2-1-2.3-1-1.2 0-2 .3-2.5 1-.4.7-.7 1.8-.7 3.5V19h6.2v-4.2z"/><g fill="#FFF"><path d="M35.7 13.1c-.4-.2-.7-.4-1.1-.6-.3-.2-.5-.5-.5-.9 0-.3.4-.6-.1-.8-.4-.1-.7.2-.9.4-.8 1-.8 2.1-.6 3.2.3 1.4 1 2.5 1.8 3.6 2.7 3.6 2.9 7.7 2.5 12-.1.9-.3 1.7-.7 2.5-.2.5-.5 1-1.1.9-.6-.1-.7-.6-.9-1.1-.2-1-.4-2-.6-2.9-.2-.8-.3-1.7-.8-2.5-.2-.3-.4-.7-.8-.7-.5 0-.7.5-.8.9-.1.5-.2 1-.2 1.5.1 4.8 1.2 9.4 3.4 13.7.1.3.2.7.6.7.4 0 .3-.5.4-.7.6-1.7 1.4-2 2.9-1 .3.2.5.5.9.4.4-.2.3-.7.3-1 .1-2.6.3-5.2.5-7.8.3-3.5.8-6.9.9-10.4v-1.6c-.3-3.5-1.7-6.3-5.1-7.8z"/><path d="M42.5.5C32.3.5 24 11.7 24 25.5s8.3 25 18.6 25 18.6-11.2 18.6-25c-.1-13.8-8.4-25-18.7-25zm-1 22.2c-.3 4.3-.8 9.3-1.2 14.3-.1 1.5-.1 3-.1 4.5 0 .7-.2 1.2-.8 1.5-.7.3-1.2 0-1.7-.5-1-.9-1.4-.8-1.8.4-.2.6-.3 1.3-1 1.4-.8.1-1.2-.6-1.5-1.2-2.5-4.9-4.3-10-5.1-15.5-.6-4-.9-7.9.2-11.8.7-2.7 1.9-5.1 3.4-7.4 1.3-1.9 2.9-2.4 5-1.3.8.4 1.6.6 2.5.6.4 0 .8.1 1.1.2.4.1.8.3.8.8-.1.6-.6.4-.9.4-.8 0-1.5 0-2.2.3-1.1.4-1.3 1.2-.6 2.1.1.1.1.2.2.2 3.2 2.7 3.8 6.3 3.7 11zm10.1 20.5c-.3.6-.7 1.3-1.5 1.2-.7-.1-.8-.8-1-1.4-.4-1.2-.8-1.3-1.8-.4-.5.4-1 .8-1.7.5-.7-.3-.8-.9-.8-1.5 0-1.5 0-3-.1-4.5-.4-5-.8-10.1-1.2-14.3-.1-4.7.5-8.3 3.8-10.9l.2-.2c.7-.9.5-1.7-.6-2.1-.7-.3-1.5-.3-2.2-.3-.3 0-.8.2-.9-.4-.1-.5.4-.7.8-.8.4-.1.7-.2 1.1-.2.9 0 1.7-.2 2.5-.6 2.1-1 3.7-.6 5 1.3 1.5 2.3 2.7 4.7 3.4 7.4 1.1 3.9.8 7.9.2 11.8-.9 5.4-2.6 10.5-5.2 15.4z"/><path d="M53.3 26.4c-.4 0-.7.3-.8.7-.5.8-.6 1.6-.8 2.5-.2 1-.4 2-.6 2.9-.1.5-.3 1-.9 1.1-.6.1-.9-.4-1.1-.9-.4-.8-.6-1.6-.7-2.5-.5-4.3-.2-8.4 2.5-12 .8-1.1 1.5-2.2 1.8-3.6.2-1.2.2-2.3-.6-3.2-.2-.3-.5-.5-.9-.4-.5.1-.1.5-.1.8 0 .4-.2.7-.5.9-.3.2-.7.5-1.1.6-3.4 1.5-4.8 4.2-4.9 7.8v1.6c0 3.5.6 7 .9 10.4.2 2.6.4 5.2.5 7.8 0 .4-.1.8.3 1 .4.2.6-.2.9-.4 1.5-1 2.2-.7 2.9 1 .1.3.1.7.4.7.3 0 .4-.4.6-.7 2.1-4.3 3.2-8.9 3.4-13.7 0-.5-.1-1-.2-1.5-.4-.4-.5-.8-1-.9z"/></g></svg>