<svg xmlns="http://www.w3.org/2000/svg" width="360.8" height="323.9" viewBox="0 0 360.8 323.9"><path fill="#c5dbf8" class="st0" d="M101.8 25.6c11.6-6.7 23.3-12 34.2-15.9-11.5-10.9-30-13.1-45.5-4.2-15.4 8.9-22.9 25.9-19.4 41.3 8.9-7.4 19.2-14.6 30.7-21.2zM23 161.8c0-13.4 1.2-26.2 3.3-37.6C11.2 128.8 0 143.8 0 161.6c0 17.8 11 32.8 26.1 37.4-2-11.3-3.1-23.9-3.1-37.2zM101.6 298.2c-11.6-6.7-22-14.1-30.9-21.7-3.6 15.4 3.8 32.5 19.2 41.5 15.4 8.9 33.9 6.9 45.5-3.9-10.9-3.9-22.3-9.2-33.8-15.9zM259 298.3c-11.6 6.7-23.3 12-34.2 15.9 11.5 10.8 30.1 13 45.5 4.1 15.4-8.9 22.9-25.9 19.4-41.3-8.8 7.5-19.2 14.7-30.7 21.3zM337.8 162.1c0 13.4-1.2 26.2-3.3 37.6 15.2-4.6 26.3-19.5 26.3-37.4 0-17.8-11-32.8-26.1-37.4 2.1 11.3 3.2 23.9 3.1 37.2zM259.2 25.7c11.6 6.7 22 14.1 30.9 21.7 3.6-15.4-3.8-32.5-19.2-41.5C255.6-3 237.1-1 225.5 9.8c10.8 3.9 22.3 9.2 33.7 15.9z"/></svg>
