<svg xmlns="http://www.w3.org/2000/svg" viewBox="0 0 29 39"><g id="pinguins"><path fill="#FFF" d="M9.2 9.9c-.3-.2-.6-.4-.9-.5-.2-.2-.3-.4-.4-.7 0-.2.3-.5-.1-.6-.3-.1-.5.1-.7.3-.6.8-.6 1.7-.4 2.6.2 1.1.8 2 1.4 2.8 2.1 2.8 2.3 6 1.9 9.3-.1.7-.3 1.3-.6 1.9-.2.4-.4.8-.9.7-.4-.1-.6-.4-.7-.8-.2-.8-.3-1.5-.5-2.3-.1-.7-.3-1.3-.6-1.9-.2-.3-.3-.5-.7-.5-.4 0-.5.4-.6.7-.1.4-.2.8-.2 1.2.1 3.7 1 7.3 2.6 10.7.1.2.2.5.4.5.3 0 .3-.4.3-.6.5-1.3 1.1-1.5 2.2-.8.2.1.4.4.7.3.3-.1.2-.5.2-.8 0-2 .2-4 .4-6.1.2-2.7.6-5.4.7-8.1V16c.2-2.8-.9-5-3.5-6.1z"/><path fill="#FFF" d="M14.5 0C6.5 0 0 8.7 0 19.5S6.5 39 14.5 39 29 30.3 29 19.5 22.5 0 14.5 0zm-.8 17.3c-.3 3.3-.6 7.3-.9 11.2-.1 1.2-.1 2.3-.1 3.5 0 .5-.1 1-.6 1.2-.5.2-.9 0-1.3-.4-.8-.7-1.1-.6-1.4.3-.2.5-.2 1-.8 1.1-.6.1-.9-.5-1.2-1-2-3.8-3.3-7.8-4-12.1-.5-3-.7-6.1.1-9.1.6-2.1 1.5-4 2.7-5.8 1-1.5 2.3-1.8 3.9-1 .6.3 1.2.5 1.9.5.3 0 .6.1.9.1.3.1.7.2.6.6 0 .4-.4.3-.7.3-.6 0-1.2 0-1.7.2-.8.3-1 1-.5 1.6 0 .1.1.1.2.2 2.5 2.1 3 4.9 2.9 8.6zm7.9 16c-.2.5-.5 1-1.2 1-.6-.1-.7-.6-.8-1.1-.3-.9-.7-1-1.4-.3-.4.3-.8.6-1.3.4-.5-.2-.6-.7-.6-1.2 0-1.2 0-2.3-.1-3.5-.3-3.9-.6-7.8-.9-11.2-.1-3.6.4-6.5 2.9-8.5l.2-.2c.5-.7.4-1.4-.4-1.7-.6-.2-1.2-.2-1.7-.2-.3 0-.7.1-.7-.3s.3-.5.6-.6c.3-.1.6-.1.9-.1.7 0 1.3-.2 1.9-.5 1.6-.8 2.9-.5 3.9 1 1.1 1.8 2 3.7 2.6 5.7.8 3.1.7 6.1.2 9.2-.8 4.3-2.1 8.3-4.1 12.1z"/><path fill="#FFF" d="M22.9 20.2c-.3 0-.5.3-.7.5-.4.6-.5 1.3-.6 1.9-.2.8-.3 1.5-.5 2.3-.1.4-.2.8-.7.8-.5.1-.7-.3-.9-.7-.3-.6-.5-1.3-.6-1.9-.4-3.3-.2-6.5 1.9-9.3.6-.8 1.2-1.7 1.4-2.8.2-.9.1-1.8-.5-2.5-.2-.2-.4-.4-.7-.3-.4.1-.1.4-.1.6 0 .3-.2.5-.4.7-.3.2-.5.4-.8.5-2.6 1.2-3.8 3.3-3.8 6.1v1.2c0 2.7.4 5.4.7 8.1.2 2 .3 4 .4 6.1 0 .3-.1.6.2.8.3.1.5-.1.7-.3 1.1-.8 1.7-.5 2.2.8.1.2.1.6.3.6.3 0 .3-.3.4-.5 1.7-3.4 2.5-6.9 2.6-10.7 0-.4-.1-.8-.2-1.2.2-.4.1-.7-.3-.8z"/></g></svg>
