<svg xmlns="http://www.w3.org/2000/svg" viewBox="0 0 29 39"><g id="pinguins_outline"><path fill="#FFF" d="M28.8 9.5c-.7-2.7-1.9-5.1-3.4-7.4-1.3-1.9-2.9-2.3-5-1.3-.8.4-1.6.6-2.5.6-.4 0-.7.1-1.1.2-.4.1-.9.3-.8.8.1.6.6.4.9.4.7 0 1.5 0 2.2.3 1.1.4 1.3 1.2.6 2.1l-.2.2c-3.3 2.6-3.9 6.2-3.8 10.9.4 4.2.8 9.3 1.2 14.3.1 1.5.1 3 .1 4.5 0 .6.1 1.2.8 1.5s1.2-.1 1.7-.5c1-.9 1.4-.8 1.8.4.2.6.3 1.3 1 1.4.8.1 1.2-.6 1.5-1.2 2.6-4.9 4.3-10 5.2-15.4.6-3.9.9-7.9-.2-11.8zM23.3 36c-.2.3-.3.7-.6.7s-.3-.4-.4-.7c-.7-1.7-1.4-2-2.9-1-.3.2-.5.6-.9.4-.4-.2-.3-.6-.3-1-.1-2.6-.3-5.2-.5-7.8-.3-3.4-.9-6.9-.9-10.4v-1.6c.1-3.6 1.5-6.3 4.9-7.8.4-.1.8-.4 1.1-.6s.5-.5.5-.9c0-.3-.4-.7.1-.8.4-.1.7.1.9.4.8.9.8 2 .6 3.2-.3 1.4-1 2.5-1.8 3.6-2.7 3.6-3 7.7-2.5 12 .1.9.3 1.7.7 2.5.2.5.5 1 1.1.9.6-.1.8-.6.9-1.1.2-.9.4-1.9.6-2.9.2-.9.3-1.7.8-2.5.1-.4.4-.7.8-.7.5.1.6.5 1 .9.1.5.2 1 .2 1.5-.2 4.8-1.3 9.4-3.4 13.7zM10 5.2c-.1 0-.1-.1-.2-.2-.7-.9-.5-1.7.6-2.1.7-.3 1.4-.3 2.2-.3.3 0 .8.2.9-.4 0-.5-.4-.7-.8-.8-.3-.1-.7-.2-1.1-.2-.9 0-1.7-.2-2.5-.6C7-.5 5.4 0 4.1 1.9 2.6 4.2 1.4 6.6.7 9.3c-1.1 3.9-.8 7.8-.2 11.8.8 5.5 2.6 10.6 5.1 15.5.3.6.7 1.3 1.5 1.2.7-.1.8-.8 1-1.4.4-1.2.8-1.3 1.8-.4.5.5 1 .8 1.7.5.6-.3.8-.8.8-1.5 0-1.5 0-3 .1-4.5.4-5 .9-10 1.2-14.3.1-4.7-.5-8.3-3.7-11zM13 16c-.1 3.5-.6 6.9-.9 10.4-.2 2.6-.4 5.2-.5 7.8 0 .3.1.8-.3 1-.4.1-.6-.2-.9-.4-1.5-1-2.3-.7-2.9 1-.1.2 0 .7-.4.7s-.5-.4-.6-.7c-2.2-4.3-3.3-8.9-3.4-13.7 0-.5.1-1 .2-1.5.1-.4.3-.9.8-.9.4 0 .6.4.8.7.5.8.6 1.7.8 2.5.2.9.4 1.9.6 2.9.2.5.3 1 .9 1.1.6.1.9-.4 1.1-.9.4-.8.6-1.6.7-2.5.4-4.3.2-8.4-2.5-12-.8-1.1-1.5-2.2-1.8-3.6-.2-1.1-.2-2.2.6-3.2.2-.2.5-.5.9-.4.5.2.1.5.1.8 0 .4.2.7.5.9.4.2.7.4 1.1.6 3.4 1.5 4.8 4.3 5.1 7.8V16z"/></g></svg>
