<svg xmlns="http://www.w3.org/2000/svg" width="50" height="50" viewBox="0 0 50 50"><path fill="#FFFFFF" d="M25.024 0C11.154.072 0 11.136 0 25.022c0 13.85 11.116 24.98 24.976 24.996 13.85.015 24.997-11.095 25.024-24.95C50.027 11.198 38.905.098 25.024 0zM36.69 39.215c-.105.888-1.09 1.528-1.938 1.25-.702-.228-1.374-.558-2.045-.874-3.333-1.57-6.837-2.42-10.518-2.58-3.025-.133-5.98.264-8.882 1.09-1.677.476-2.772-.48-2.45-2.185.087-.46.228-.94.473-1.33.19-.3.55-.582.89-.683 2.906-.865 5.882-1.3 9.607-1.305 3.712.052 7.935.922 11.947 2.76.547.25 1.08.536 1.633.77.684.287 1.088.806 1.213 1.505.093.517.13 1.064.07 1.583zm3.107-9.233c-.318.67-.802 1.28-1.294 1.843-.346.397-.854.26-1.293.07-1.332-.582-2.636-1.23-3.99-1.75-4.074-1.554-8.3-2.254-12.662-2.185-2.872.045-5.682.464-8.463 1.16-1.534.386-2.69-.517-2.67-2.005.017-1.478.72-2.358 2.12-2.7 4.063-.994 8.178-1.403 12.352-1.08 4.948.383 9.67 1.624 14.13 3.825.38.187.777.36 1.115.608.725.536 1.036 1.41.655 2.214zm.89-7.33c-.56-.106-1.098-.386-1.624-.636-3.303-1.57-6.76-2.664-10.354-3.313-3.934-.71-7.9-.908-11.873-.447-1.95.227-3.885.61-5.82.968-1.563.29-2.747-.37-3.013-1.753-.27-1.403.66-2.74 2.125-2.98 2.394-.392 4.79-.796 7.196-1.107 1.245-.16 2.514-.133 3.772-.19 4.576 0 9.074.617 13.43 1.984 2.526.793 4.964 1.883 7.413 2.908 1.177.492 1.645 1.674 1.283 2.823-.354 1.13-1.472 1.947-2.535 1.745z"/></svg>