<svg version="1" xmlns="http://www.w3.org/2000/svg" width="1920" height="45" viewBox="0 0 16000 370"><g id="torn-paper-2"><path d="M14181 357 c-18 -10 -56 -34 -84 -53 -28 -19 -56 -33 -64 -30 -19 8 -64 -14 -88 -41 -17 -20 -34 -25 -107 -31 -78 -7 -90 -6 -106 11 -16 16 -22 17 -47 5 -16 -7 -40 -23 -54 -35 -26 -25 -30 -26 -79 -23 -18 1 -39 -4 -47 -10 -10 -8 -29 -10 -57 -5 -24 4 -127 8 -229 9 -163 1 -189 3 -206 18 -26 23 -29 23 -72 -11 -35 -27 -84 -40 -171 -46 -19 -1 -50 -8 -68 -16 -24 -10 -37 -11 -50 -2 -14 8 -44 8 -118 -2 -54 -7 -106 -10 -114 -6 -17 9 -301 8 -315 -1 -6 -3 -111 -3 -235 -1 -218 4 -448 6 -695 4 -228 -1 -561 5 -702 14 -95 5 -221 4 -375 -5 -283 -15 -906 -17 -1043 -2 -63 7 -404 11 -925 12 -454 0 -842 4 -862 9 -20 5 -39 7 -41 5 -2 -3 -65 -7 -140 -11 -128 -6 -137 -5 -171 16 -32 20 -47 22 -153 20 -187 -3 -312 1 -398 12 -74 10 -121 14 -295 23 -36 2 -92 11 -125 19 -36 10 -102 16 -163 17 -89 0 -109 -3 -154 -25 -29 -14 -59 -23 -67 -20 -7 3 -20 0 -27 -6 -19 -15 -181 -28 -194 -15 -7 7 -17 6 -30 -2 -11 -6 -27 -12 -35 -12 -8 0 -15 -3 -15 -8 0 -4 -37 -6 -82 -5 -150 5 -172 5 -300 0 -70 -3 -132 -8 -137 -12 -18 -11 -429 -16 -436 -5 -3 6 -17 10 -30 10 -13 0 -25 5 -27 11 -2 6 -42 11 -94 13 -50 1 -96 6 -103 10 -16 11 -125 9 -202 -3 -35 -5 -99 -11 -143 -13 -77 -3 -78 -2 -107 30 -29 32 -33 33 -147 44 -67 6 -149 7 -192 3 -122 -13 -330 -6 -368 11 -20 10 -44 13 -62 9 -19 -4 -30 -3 -30 4 0 6 -8 11 -18 11 -10 0 -22 4 -28 9 -15 14 -70 21 -81 10 -7 -7 -21 -6 -44 4 -19 7 -45 10 -59 7 -14 -4 -34 -2 -44 3 -11 5 -49 9 -84 8 -35 -1 -83 5 -106 12 -150 52 -193 61 -301 62 -82 1 -116 -2 -135 -14 -99 -60 -146 -82 -165 -77 -15 4 -32 -4 -56 -26 -32 -30 -40 -32 -123 -36 -51 -3 -91 0 -95 5 -3 5 -20 13 -37 16 -24 5 -36 1 -49 -13 -10 -11 -26 -20 -36 -20 -10 0 -25 -10 -33 -22 -12 -17 -18 -20 -28 -10 -17 17 -69 15 -95 -3 -14 -10 -24 -12 -28 -5 -3 5 -17 10 -30 10 -13 0 -27 4 -30 10 -4 6 -72 9 -171 8 -151 -1 -166 1 -179 18 -7 10 -17 16 -20 12 -4 -4 -16 -3 -27 3 -16 8 -25 6 -41 -9 -53 -47 -85 -52 -447 -55 l-205 -2 -3 -48 -3 -47 2138 0 c1506 -1 2168 -4 2238 -12 55 -6 129 -10 165 -10 36 1 117 1 180 1 63 -1 129 0 145 1 17 1 104 2 195 4 91 1 230 6 310 10 80 4 150 7 155 7 6 -1 44 -6 85 -11 214 -28 352 -31 366 -9 7 12 103 11 188 -1 49 -8 72 -7 82 1 9 8 58 10 151 7 110 -4 151 -9 203 -27 59 -21 76 -23 190 -17 69 3 152 10 185 16 97 15 349 29 665 36 162 4 302 7 310 6 8 0 146 0 305 0 372 1 327 1 1180 -6 434 -4 740 -11 755 -16 15 -6 135 -9 293 -7 148 2 299 -1 335 -5 244 -27 958 -30 1000 -4 19 11 362 21 692 19 107 0 364 2 570 5 206 4 948 8 1648 9 l1272 3 0 79 0 80 -32 -10 c-49 -14 -53 -12 -96 33 l-40 42 -144 0 c-104 1 -150 -3 -167 -13 -18 -10 -63 -13 -175 -12 -125 1 -153 4 -168 18 -16 14 -23 15 -38 5 -20 -12 -44 -8 -70 13 -21 17 -88 26 -96 13 -4 -5 -18 -7 -33 -3 -14 4 -82 8 -151 9 -69 2 -141 8 -160 14 -19 5 -61 18 -93 28 -84 26 -308 26 -356 1z"/></g></svg>
