<svg version="1" xmlns="http://www.w3.org/2000/svg" width="1920" height="74" viewBox="0 0 16000 610"><g id="torn-paper-3"><path d="M1950 608 c-19 -5 -37 -13 -40 -17 -15 -24 -94 -62 -116 -57 -17 5 -32 -2 -59 -25 -32 -29 -43 -32 -133 -39 -89 -7 -99 -6 -119 12 -17 16 -25 18 -42 9 -12 -7 -21 -16 -21 -21 0 -6 -8 -10 -18 -10 -11 0 -27 -9 -37 -20 -13 -15 -22 -17 -36 -10 -26 14 -62 12 -85 -4 -21 -16 -60 -11 -84 10 -12 10 -59 13 -192 13 -166 -1 -177 0 -197 20 -26 26 -36 26 -60 2 -34 -34 -61 -42 -149 -45 -48 -1 -97 -8 -110 -15 -13 -7 -31 -9 -40 -5 -9 4 -93 9 -187 10 -93 1 -181 4 -195 6 l-25 3 -3 -129 c-1 -71 2 -134 7 -139 12 -12 173 8 280 35 86 22 105 21 187 -12 38 -16 98 -6 125 21 10 10 25 19 32 19 7 0 18 5 23 10 7 7 28 6 65 -3 47 -13 59 -12 94 1 29 11 70 15 150 13 285 -7 309 -6 354 19 16 8 32 8 64 -1 53 -15 90 -13 129 7 20 11 44 14 67 10 20 -3 54 -1 74 5 30 8 42 7 59 -6 12 -8 37 -15 54 -15 17 0 65 -11 105 -24 53 -17 106 -25 189 -29 126 -6 194 3 252 33 46 24 131 26 168 5 14 -8 39 -14 57 -15 18 0 43 -5 56 -11 19 -9 32 -7 65 9 33 16 63 19 173 20 118 1 144 -2 219 -24 47 -15 97 -37 111 -50 20 -20 37 -24 90 -26 68 -2 204 13 279 31 102 24 332 50 585 66 28 1 79 8 115 14 84 14 177 14 186 0 5 -8 24 -9 63 -3 31 4 108 6 171 5 63 -2 129 -2 145 -1 17 1 107 2 200 3 105 1 177 6 189 13 13 8 30 9 55 2 25 -7 50 -7 81 0 51 13 138 18 160 10 105 -37 362 -50 443 -22 48 16 70 15 177 -5 40 -8 63 -8 82 0 17 7 72 9 155 6 153 -7 198 -13 239 -34 26 -14 46 -14 150 -4 239 24 330 31 384 31 30 0 104 5 163 11 96 9 111 9 134 -6 21 -14 36 -16 77 -9 28 4 103 7 166 5 63 -2 129 -2 145 -1 17 1 107 2 200 3 105 1 177 6 189 13 13 8 30 9 55 2 25 -7 50 -7 81 0 51 13 138 18 160 10 105 -37 362 -50 443 -22 48 16 70 15 177 -5 40 -8 63 -8 82 0 17 7 72 9 155 6 153 -7 198 -13 239 -34 26 -14 46 -14 150 -4 299 30 540 46 684 45 104 -1 251 -19 280 -34 10 -6 58 -10 107 -10 102 -1 129 -15 135 -71 2 -26 8 -35 25 -37 12 -2 27 5 35 15 12 17 24 18 110 13 94 -5 99 -7 132 -39 25 -25 41 -32 57 -28 15 4 44 -8 94 -38 l72 -44 144 4 c90 2 161 9 189 18 134 43 131 42 320 47 19 1 52 6 72 12 29 9 41 8 53 -2 12 -10 19 -10 27 -2 7 7 22 12 34 12 12 0 28 7 35 16 10 12 24 15 56 10 34 -4 45 -2 55 13 12 17 26 18 178 14 440 -11 489 -6 519 51 18 34 34 38 86 24 38 -10 47 -10 62 4 19 17 56 17 136 -1 76 -18 180 -18 208 0 18 11 37 13 79 8 31 -4 59 -4 64 2 6 5 17 9 26 9 10 0 30 7 47 15 17 8 62 16 104 17 66 1 284 -21 365 -38 19 -3 34 -1 38 5 5 7 28 8 64 5 51 -6 61 -4 87 18 44 37 73 43 96 22 16 -14 23 -15 45 -5 15 6 34 9 44 6 10 -3 21 -1 25 5 8 13 52 13 60 0 10 -16 37 -11 61 11 18 17 26 19 43 9 12 -6 36 -8 54 -5 18 4 52 0 77 -8 140 -46 307 -51 341 -11 14 17 93 9 128 -13 25 -16 123 -12 145 6 6 5 27 12 46 16 28 5 41 2 63 -15 25 -20 31 -21 83 -10 31 7 84 10 118 8 l61 -3 3 80 3 80 -40 12 c-27 9 -48 10 -64 4 -21 -8 -277 -26 -329 -23 -9 0 -22 -6 -29 -14 -13 -16 -91 -19 -119 -4 -10 5 -50 13 -89 16 -39 4 -68 10 -66 15 9 13 -15 21 -29 10 -10 -8 -22 -8 -40 -1 -41 15 -102 12 -117 -6 -10 -12 -23 -14 -52 -10 -21 4 -152 1 -290 -5 -229 -10 -260 -14 -337 -38 -61 -20 -110 -28 -174 -30 -49 -1 -105 -8 -125 -14 -48 -17 -266 -12 -345 8 -35 8 -135 16 -234 19 -110 4 -190 11 -220 20 -57 18 -157 36 -198 36 -17 0 -34 4 -40 9 -13 13 -205 35 -284 32 -51 -1 -70 -6 -87 -23 -45 -42 -164 -69 -323 -72 -129 -3 -148 -1 -183 17 -33 17 -44 18 -71 9 -18 -7 -45 -12 -60 -12 -15 0 -41 -7 -58 -16 -38 -20 -131 -14 -157 10 -49 45 -310 46 -461 1 -47 -13 -99 -25 -117 -25 -17 0 -34 -4 -38 -9 -7 -12 -175 -2 -192 11 -14 11 -93 13 -146 3 -25 -5 -42 -3 -53 6 -8 7 -27 14 -42 17 -48 8 -246 3 -292 -7 -44 -9 -127 3 -146 22 -11 10 -83 8 -127 -4 -29 -8 -45 -7 -68 3 -16 7 -29 17 -29 21 0 12 -65 37 -95 37 -14 0 -42 -9 -62 -20 -45 -24 -83 -25 -149 -5 -70 21 -255 42 -349 39 -51 -1 -97 4 -128 13 -45 15 -50 14 -107 -7 -34 -13 -71 -31 -83 -40 -17 -14 -38 -17 -97 -15 -74 3 -171 18 -192 31 -6 4 -56 8 -112 9 -84 3 -106 0 -134 -16 -18 -10 -52 -22 -75 -25 -23 -3 -55 -12 -72 -19 -34 -15 -151 -22 -177 -11 -9 4 -29 1 -45 -7 -22 -12 -79 -15 -270 -15 -146 0 -265 -5 -300 -12 -66 -14 -222 -16 -343 -4 -94 10 -211 10 -339 2 -71 -5 -90 -3 -117 13 -36 20 -77 22 -362 20 -79 -1 -149 2 -155 6 -7 4 -22 6 -35 4 -13 -1 -28 2 -35 7 -7 6 -75 12 -152 13 -138 2 -165 5 -255 30 -25 6 -88 13 -140 14 -78 2 -101 0 -128 -16 -18 -10 -52 -22 -75 -25 -23 -3 -55 -12 -72 -19 -34 -15 -151 -22 -177 -11 -9 4 -29 1 -45 -7 -22 -12 -79 -15 -270 -15 -143 0 -266 -5 -298 -12 -77 -16 -240 -19 -300 -5 -27 6 -63 19 -78 30 -20 13 -50 19 -110 20 -45 1 -98 7 -117 12 -23 6 -61 7 -105 1 -39 -5 -117 -13 -175 -17 -58 -4 -112 -11 -121 -15 -10 -4 -21 -2 -28 6 -5 7 -23 28 -38 46 l-28 33 -165 0 c-91 0 -235 0 -320 0 -128 0 -156 3 -164 16 -6 11 -17 13 -42 8 -20 -3 -43 -1 -56 7 -50 27 -90 37 -113 26 -18 -8 -28 -7 -45 5 -16 11 -30 13 -52 6 -19 -5 -38 -5 -49 1 -10 6 -48 10 -85 10 -65 0 -91 5 -178 37 -22 8 -78 16 -125 19 -47 2 -113 6 -146 8 -33 2 -76 -1 -95 -6z"/></g></svg>
