<svg version="1" xmlns="http://www.w3.org/2000/svg" width="1920" height="21" viewBox="0 0 16000 170"><g id="torn-paper-1"><path d="M2555 165 c-38 -7 -151 -16 -250 -20 -98 -3 -182 -8 -186 -11 -17 -10 -140 -15 -393 -15 -249 1 -272 -1 -301 -19 -28 -17 -43 -18 -165 -12 -152 7 -220 6 -365 -4 -108 -8 -299 -9 -516 -4 -75 2 -142 -1 -150 -6 -8 -5 -50 -9 -94 -10 -138 -2 -135 -1 -135 -29 l0 -25 103 0 c56 0 144 7 195 15 169 28 725 24 1062 -8 189 -17 385 -14 495 7 74 15 124 17 285 13 116 -3 215 -1 246 5 39 8 75 7 153 -6 126 -20 232 -20 359 -1 120 18 115 17 572 11 443 -7 731 -6 742 1 16 9 451 3 462 -6 15 -13 1349 -13 1596 0 263 13 899 12 1207 -3 204 -9 288 -9 380 0 71 7 249 11 448 10 182 -1 393 -2 470 -1 1350 5 1975 5 2085 -1 161 -9 817 -10 1015 -2 96 5 200 1 330 -10 173 -15 198 -16 280 -2 61 11 106 13 140 8 28 -5 120 -6 207 -3 153 6 278 -5 339 -28 19 -7 92 -6 245 5 351 25 432 28 959 32 755 5 1025 5 1035 -1 5 -3 112 -5 237 -5 125 1 256 1 291 0 47 -1 62 2 62 13 0 12 -52 16 -302 22 -416 11 -1913 15 -2073 5 -108 -6 -136 -4 -165 8 -28 13 -82 16 -275 17 -132 1 -258 4 -280 7 -22 3 -105 9 -185 12 -80 4 -181 11 -225 18 -140 19 -243 18 -313 -3 -34 -10 -69 -16 -77 -13 -8 4 -22 0 -31 -7 -11 -9 -55 -14 -136 -15 -67 -2 -125 -7 -130 -12 -6 -6 -22 -7 -40 -1 -19 5 -38 4 -50 -2 -14 -7 -33 -8 -62 -1 -41 10 -213 9 -396 -2 -140 -9 -384 -8 -845 3 -225 5 -417 10 -425 11 -8 1 -145 1 -305 0 -384 -2 -505 2 -655 24 -102 15 -155 17 -285 12 -88 -4 -232 -9 -320 -12 -88 -2 -216 -8 -285 -14 -69 -6 -227 -8 -351 -6 -129 3 -242 1 -265 -5 -22 -5 -301 -12 -633 -14 -326 -3 -597 -7 -601 -10 -5 -3 -125 -5 -267 -4 -142 0 -496 2 -788 2 -303 1 -536 6 -544 11 -8 5 -169 10 -360 11 -294 1 -351 3 -378 17 -20 10 -35 12 -41 6 -6 -6 -75 -10 -164 -9 -84 0 -177 -5 -206 -11 -40 -9 -58 -8 -76 1 -16 9 -33 10 -57 3 -33 -9 -40 -8 -87 17 -13 6 -28 9 -34 5 -17 -11 -221 -4 -232 7 -6 5 -22 9 -36 9 -15 0 -53 9 -86 20 -70 23 -263 26 -379 5z"/></g></svg>
