<?xml version="1.0" encoding="utf-8"?>
<!-- Generator: Adobe Illustrator 17.0.0, SVG Export Plug-In . SVG Version: 6.00 Build 0)  -->
<!DOCTYPE svg PUBLIC "-//W3C//DTD SVG 1.1//EN" "http://www.w3.org/Graphics/SVG/1.1/DTD/svg11.dtd">
<svg version="1.1" id="Camada_1" xmlns="http://www.w3.org/2000/svg" xmlns:xlink="http://www.w3.org/1999/xlink" x="0px" y="0px"
	 width="50px" height="50px" viewBox="0 0 50 50" enable-background="new 0 0 50 50" xml:space="preserve">
<path d="M25,0C11.193,0,0,11.193,0,25s11.193,25,25,25s25-11.193,25-25S38.807,0,25,0z M35.009,19.557v0.738
	c0,7.196-5.166,15.498-14.668,15.498c-2.86,0-5.535-0.83-7.841-2.398c0.369,0.092,0.83,0.092,1.199,0.092
	c2.398,0,4.613-0.83,6.365-2.306c-2.214-0.092-4.151-1.661-4.797-3.782c0.277,0.092,0.554,0.092,0.923,0.092
	c0.461,0,0.922-0.092,1.384-0.185c-2.398-0.554-4.151-2.675-4.151-5.351v-0.092c0.646,0.369,1.476,0.646,2.306,0.646
	c-1.384-1.015-2.306-2.675-2.306-4.52c0-0.922,0.277-1.845,0.738-2.675c2.491,3.229,6.365,5.443,10.609,5.535
	c-0.092-0.369-0.092-0.738-0.092-1.199c0-3.044,2.306-5.443,5.166-5.443c1.476,0,2.86,0.738,3.782,1.753
	c1.107-0.185,2.214-0.646,3.229-1.292c-0.461,1.292-1.199,2.398-2.306,3.044c1.015-0.092,2.03-0.369,2.952-0.83
	C36.762,17.897,35.932,18.911,35.009,19.557z"/>
</svg>
