<?xml version="1.0" encoding="utf-8"?>
<!-- Generator: Adobe Illustrator 17.0.0, SVG Export Plug-In . SVG Version: 6.00 Build 0)  -->
<!DOCTYPE svg PUBLIC "-//W3C//DTD SVG 1.1//EN" "http://www.w3.org/Graphics/SVG/1.1/DTD/svg11.dtd">
<svg version="1.1" id="Camada_1" xmlns="http://www.w3.org/2000/svg" xmlns:xlink="http://www.w3.org/1999/xlink" x="0px" y="0px"
	 width="50px" height="50px" viewBox="0 0 50 50" enable-background="new 0 0 50 50" xml:space="preserve">
<g>
	<polygon points="20.962,30.654 30.769,25 20.962,19.346 	"/>
	<path d="M25,0C11.193,0,0,11.193,0,25s11.193,25,25,25s25-11.193,25-25S38.807,0,25,0z M40,30.308c0,5.077-5.192,5.077-5.192,5.077
		H15.192C10,35.385,10,30.308,10,30.308V19.693c0-5.077,5.192-5.077,5.192-5.077h19.615c5.192,0,5.192,5.077,5.192,5.077L40,30.308
		L40,30.308z"/>
</g>
</svg>
