<?xml version="1.0" standalone="no"?>
<!DOCTYPE svg PUBLIC "-//W3C//DTD SVG 1.1//EN" "http://www.w3.org/Graphics/SVG/1.1/DTD/svg11.dtd" >
<svg xmlns="http://www.w3.org/2000/svg">
<metadata>
Created by FontPrep 20130207 at Thu May 21 12:36:24 2015
 By Alex Agena
Copyright (c) 1989, 1995, 2002 Adobe Systems Incorporated.  All Rights Reserved. (c) 1981, 1995, 2002 Heidelberger Druckmaschinen AG. All rights reserved.
</metadata>
<defs>
<font id="1297092b477b7e1dcddfcf3bbb416185" horiz-adv-x='1024' >
  <font-face 
    font-family="AvenirLTStd-Roman"
    font-weight="400"
    font-stretch="normal"
    units-per-em="2048"
    panose-1="2 11 5 3 2 2 3 2 2 4"
    ascent="1548"
    descent="-500"
    x-height="958"
    cap-height="1450"
    bbox="-340 -512 2048 1901"
    underline-thickness="102"
    underline-position="-102"
    unicode-range="U+0020-FB02"
  />
<missing-glyph horiz-adv-x="1024" 
d="M0 1434h1024v-1434h-1024v1434zM860 1331h-696l348 -522zM922 195v1044l-349 -522zM860 102l-348 523l-348 -523h696zM102 195l349 522l-349 522v-1044z" />
    <glyph glyph-name="fi" unicode="fi" horiz-adv-x="1099" 
d="M233 1174q0 399 340 399q81 0 123 -25l-22 -143q-58 20 -114 20q-106 0 -136.5 -65.5t-30.5 -220.5v-181h234v-135h-234v-823h-160v823h-208v135h208v216zM774 958h160v-958h-160v958zM737 1331q0 49 34 84t83 35t83 -35t34 -84t-33 -81.5t-84 -32.5t-84 32.5t-33 81.5z
" />
    <glyph glyph-name="fl" unicode="fl" horiz-adv-x="1099" 
d="M233 1174q0 399 340 399q81 0 123 -25l-22 -143q-58 20 -114 20q-106 0 -136.5 -65.5t-30.5 -220.5v-181h234v-135h-234v-823h-160v823h-208v135h208v216zM774 1548h160v-1548h-160v1548z" />
    <glyph glyph-name=".notdef" horiz-adv-x="1024" 
d="M0 1434h1024v-1434h-1024v1434zM860 1331h-696l348 -522zM922 195v1044l-349 -522zM860 102l-348 523l-348 -523h696zM102 195l349 522l-349 522v-1044z" />
    <glyph glyph-name=".null" horiz-adv-x="0" 
 />
    <glyph glyph-name="nonmarkingreturn" horiz-adv-x="569" 
 />
    <glyph glyph-name="space" unicode=" " horiz-adv-x="569" 
 />
    <glyph glyph-name="exclam" unicode="!" horiz-adv-x="569" 
d="M371 406h-172v1044h172v-1044zM284.5 233q51.5 0 87.5 -35.5t36 -87t-38 -87t-85 -35.5t-85 35.5t-38 87t35.5 87t87 35.5z" />
    <glyph glyph-name="quotedbl" unicode="&#x22;" horiz-adv-x="1062" 
d="M307 1450h148v-492h-148v492zM608 1450h148v-492h-148v492z" />
    <glyph glyph-name="numbersign" unicode="#" 
d="M61 436v135h222l41 312h-201v135h221l62 432h137l-62 -432h258l62 432h137l-61 -432h200v-135h-219l-43 -312h201v-135h-221l-62 -436h-137l61 436h-258l-61 -436h-137l61 436h-201zM721 883h-258l-43 -312h258z" />
    <glyph glyph-name="dollar" unicode="$" 
d="M524 -25q-296 0 -438 191l143 125q45 -70 126 -111t169 -45v520q-405 101 -405 416q0 169 119 279t286 125v135h99v-135q111 0 218 -41t179 -125l-135 -123q-99 129 -262 129v-510q82 -27 256 -95.5t174 -320.5q0 -175 -122.5 -287t-307.5 -127v-145h-99v145zM303 1069
q0 -134 87 -176.5t134 -61.5v484q-100 -18 -160.5 -83t-60.5 -163zM868 381q0 145 -99 189t-146 59v-494q104 12 174.5 80t70.5 166z" />
    <glyph glyph-name="percent" unicode="%" horiz-adv-x="1705" 
d="M78 1116q0 76 27.5 141.5t75.5 113.5t113.5 76t141.5 28t141.5 -28t113.5 -76t76 -113.5t28 -141.5t-28 -141.5t-76 -113.5t-113.5 -75.5t-141.5 -27.5t-141.5 27.5t-113.5 75.5t-75.5 113.5t-27.5 141.5zM225 1116q0 -43 17.5 -81t46 -67.5t66.5 -46t81 -16.5t81 16.5
t66.5 46t46 67.5t17.5 81t-17.5 81t-46 67.5t-66.5 46t-81 16.5t-81 -16.5t-66.5 -46t-46 -67.5t-17.5 -81zM911 334q0 76 28 141.5t76 113.5t113.5 75.5t141.5 27.5t141.5 -27.5t113.5 -75.5t75.5 -113.5t27.5 -141.5t-27.5 -141.5t-75.5 -113.5t-113.5 -76t-141.5 -28
t-141.5 28t-113.5 76t-76 113.5t-28 141.5zM1059 334q0 -43 17.5 -81t46 -67.5t66.5 -46t81 -16.5t81 16.5t66.5 46t46 67.5t17.5 81t-17.5 81t-46 67.5t-66.5 46t-81 16.5t-81 -16.5t-66.5 -46t-46 -67.5t-17.5 -81zM1257 1516l113 -66l-909 -1516l-113 66z" />
    <glyph glyph-name="ampersand" unicode="&#x26;" horiz-adv-x="1478" 
d="M1018 209q-186 -234 -408 -234q-220 0 -353.5 113t-133.5 301q0 267 321 420q-72 72 -123 151.5t-51 171.5q0 166 108 255.5t264 89.5t261 -83.5t105 -238.5q0 -210 -308 -369l308 -325l194 325h195l-279 -446l332 -340h-236zM836 1172q0 66 -54.5 111.5t-135.5 45.5
t-142.5 -52.5t-61.5 -126.5t32 -120.5t69 -85.5l51 -53q125 70 161 101.5t58.5 72.5t22.5 107zM378 202q83 -79 212 -79t209 80t114 121l-362 381q-113 -60 -184.5 -131.5t-71.5 -182.5q0 -110 83 -189z" />
    <glyph glyph-name="quotesingle" unicode="'" horiz-adv-x="569" 
d="M211 1450h147v-492h-147v492z" />
    <glyph glyph-name="parenleft" unicode="(" horiz-adv-x="569" 
d="M412 -319q-299 413 -299 918q0 245 78.5 476.5t220.5 423.5l110 -82q-262 -360 -262 -827q0 -345 98.5 -536t163.5 -296z" />
    <glyph glyph-name="parenright" unicode=")" horiz-adv-x="569" 
d="M158 1499q299 -413 299 -919q0 -244 -79 -475.5t-220 -423.5l-111 81q262 360 262 828q0 341 -98 534t-164 297z" />
    <glyph glyph-name="asterisk" unicode="*" horiz-adv-x="909" 
d="M393 1450h123v-305l291 98l39 -119l-289 -98l182 -244l-100 -77l-184 251l-179 -251l-102 77l178 244l-289 98l39 119l291 -98v305z" />
    <glyph glyph-name="plus" unicode="+" horiz-adv-x="1363" 
d="M147 688h467v467h136v-467h467v-135h-467v-467h-136v467h-467v135z" />
    <glyph glyph-name="comma" unicode="," horiz-adv-x="569" 
d="M264 -283h-158l140 492h186z" />
    <glyph glyph-name="hyphen" unicode="-" horiz-adv-x="681" 
d="M90 565h502v-147h-502v147z" />
    <glyph glyph-name="period" unicode="." horiz-adv-x="569" 
d="M284.5 233q51.5 0 87.5 -35.5t36 -87t-38 -87t-85 -35.5t-85 35.5t-38 87t35.5 87t87 35.5z" />
    <glyph glyph-name="slash" unicode="/" horiz-adv-x="757" 
d="M135 -88l-129 51l617 1573l129 -49z" />
    <glyph glyph-name="zero" unicode="0" 
d="M78 725q0 123 20.5 256t75.5 242.5t150.5 180.5t245 71t244.5 -71t150.5 -180.5t76 -242.5t20.5 -256t-20.5 -256t-76 -242.5t-150.5 -180.5t-244.5 -71t-245 71t-150.5 180.5t-75.5 242.5t-20.5 256zM250 725q0 -53 4 -118.5t15.5 -132t33 -130t57 -113t87 -79
t123 -29.5t122.5 29.5t87 79t57.5 113t33 130t15.5 132t4 118.5t-4 118.5t-15.5 132t-33 130t-57.5 113t-87 79t-122.5 29.5t-123 -29.5t-87 -79t-57 -113t-33 -130t-15.5 -132t-4 -118.5z" />
    <glyph glyph-name="one" unicode="1" 
d="M737 0h-172v1229h-4l-260 -219l-102 125l389 315h149v-1450z" />
    <glyph glyph-name="two" unicode="2" 
d="M777.5 1260q-76.5 67 -187.5 67t-182.5 -63.5t-92.5 -167.5l-186 16q41 260 204 311.5t252 51.5q185 0 313 -104.5t128 -275.5t-75 -280.5t-208 -230.5l-446 -420v-4h739v-160h-934v197l547 532q114 110 159.5 181t45.5 177t-76.5 173z" />
    <glyph glyph-name="three" unicode="3" 
d="M553 1327q-187 0 -266 -162l-166 64q53 123 166.5 184.5t226.5 61.5q207 0 333 -99.5t126 -279.5q0 -115 -68.5 -206t-179.5 -126v-4q133 -23 215 -123.5t82 -223.5q0 -215 -138 -326.5t-322 -111.5q-185 0 -308 72t-178 234l174 57q37 -117 104.5 -166t190.5 -49t208 81
t85 217t-108 201.5t-259 65.5h-53v148h53q330 0 330 251q0 111 -68.5 175.5t-179.5 64.5z" />
    <glyph glyph-name="four" unicode="4" 
d="M858 492h209v-160h-209v-332h-172v332h-614v190l575 928h211v-958zM686 1249h-4l-463 -757h467v757z" />
    <glyph glyph-name="five" unicode="5" 
d="M971 1450v-160h-592l-6 -391q72 35 181 35q212 0 340 -135.5t128 -346.5t-141.5 -344t-356.5 -133q-166 0 -267 72t-161 193l172 65q37 -82 107.5 -132t150.5 -50q147 0 235.5 93t88.5 244t-101 238.5t-251 87.5q-151 0 -301 -90l14 754h760z" />
    <glyph glyph-name="six" unicode="6" 
d="M604 885q204 0 327.5 -127.5t123.5 -331.5t-138.5 -327.5t-347 -123.5t-347 123.5t-138.5 331.5q0 125 39 219t98 189l385 612h201l-389 -604l4 -4q76 43 182 43zM569.5 737q-135.5 0 -224.5 -85t-89 -222t89 -222t224.5 -85t224.5 85t89 222t-89 222t-224.5 85z" />
    <glyph glyph-name="seven" unicode="7" 
d="M98 1290v160h885v-160l-580 -1290h-194l590 1290h-701z" />
    <glyph glyph-name="eight" unicode="8" 
d="M156 1114q0 68 31.5 137.5t87 118.5t131 77t208 28t251 -105t118.5 -274q0 -107 -65 -199t-173 -121v-4q201 -43 244 -174t43 -214t-35.5 -162t-98 -134t-147.5 -84t-233.5 -29t-280 115.5t-131.5 308.5q0 139 78 242t209 131v4q-105 27 -171 119t-66 219zM328 1087.5
q0 -104.5 66.5 -172t175 -67.5t175 67.5t66.5 172t-66.5 172t-175 67.5t-175 -67.5t-66.5 -172zM279 411.5q0 -63.5 22.5 -116.5t62 -91t92 -59.5t114 -21.5t113.5 21.5t92 59.5t62.5 91t22.5 116.5t-22.5 117t-62.5 91t-92 59t-113.5 21.5t-114 -21.5t-92 -59t-62 -91
t-22.5 -117z" />
    <glyph glyph-name="nine" unicode="9" 
d="M534 565q-205 0 -327.5 128t-122.5 331q0 204 138.5 327.5t347 123.5t347 -123.5t138.5 -331.5q0 -114 -33 -201t-104 -207l-386 -612h-200l389 604l-4 4q-77 -43 -183 -43zM883 1020q0 137 -89 222t-224.5 85t-224.5 -85t-89 -222t89 -222t224.5 -85t224.5 85t89 222z
" />
    <glyph glyph-name="colon" unicode=":" horiz-adv-x="569" 
d="M284.5 983q51.5 0 87.5 -36t36 -87t-38 -87t-85 -36t-85 36t-38 87t35.5 87t87 36zM284.5 233q51.5 0 87.5 -35.5t36 -87t-38 -87t-85 -35.5t-85 35.5t-38 87t35.5 87t87 35.5z" />
    <glyph glyph-name="semicolon" unicode=";" horiz-adv-x="569" 
d="M264 -283h-158l140 492h186zM284.5 983q51.5 0 87.5 -36t36 -87t-38 -87t-85 -36t-85 36t-38 87t35.5 87t87 36z" />
    <glyph glyph-name="less" unicode="&#x3c;" horiz-adv-x="1363" 
d="M1217 1020l-904 -399l904 -400v-135l-1070 475v119l1070 475v-135z" />
    <glyph glyph-name="equal" unicode="=" horiz-adv-x="1363" 
d="M147 848h1070v-135h-1070v135zM147 528h1070v-135h-1070v135z" />
    <glyph glyph-name="greater" unicode="&#x3e;" horiz-adv-x="1363" 
d="M147 221l904 400l-904 399v135l1070 -475v-119l-1070 -475v135z" />
    <glyph glyph-name="question" unicode="?" horiz-adv-x="987" 
d="M387 535q0 106 23.5 148t50 70.5t62.5 65.5t110 111t74 194q0 90 -57.5 152.5t-161.5 62.5t-168 -61t-80 -162l-185 21q42 251 197.5 300.5t284.5 49.5t241.5 -96t112.5 -266t-94.5 -262.5t-133.5 -129.5q-71 -67 -87.5 -106t-16.5 -127v-94h-172v129zM473 233
q51 0 87 -35.5t36 -87t-38 -87t-85 -35.5t-85 35.5t-38 87t36 87t87 35.5z" />
    <glyph glyph-name="at" unicode="@" horiz-adv-x="1638" 
d="M537 591q0 -77 50 -132.5t123 -55.5q129 0 225.5 147.5t96.5 287.5q0 76 -50.5 134t-118.5 58q-69 0 -129 -42t-104 -106.5t-68.5 -139t-24.5 -151.5zM934 403q-115 -135 -244 -135q-141 0 -221 90.5t-80 212.5q0 241 134.5 417.5t342.5 176.5q165 0 228 -168h4l37 129
h133l-172 -579q-19 -59 -19 -102q0 -42 49.5 -42t100.5 38t118.5 141t67.5 246q0 254 -166.5 401t-390.5 147q-263 0 -397.5 -141t-184 -260t-49.5 -253t51.5 -253t137.5 -207t201 -138t255 -50t279 67.5t223 180.5h129q-150 -256 -347.5 -307.5t-328.5 -51.5t-270 59.5
t-242.5 163t-163 241.5t-59.5 298t60.5 299t165 241.5t243.5 162t289 59.5t274.5 -46t220 -129t150.5 -199t55 -251t-48 -243.5t-119.5 -186.5t-156 -121t-146.5 -43q-133 0 -140 135h-4z" />
    <glyph glyph-name="A" unicode="A" horiz-adv-x="1441" 
d="M651 1450h162l617 -1450h-201l-148 356h-725l-149 -356h-195zM729 1229h-4l-301 -713h592z" />
    <glyph glyph-name="B" unicode="B" horiz-adv-x="1290" 
d="M180 1450h443q322 0 401.5 -128t79.5 -242t-68.5 -196.5t-185.5 -117.5v-4q139 -12 233.5 -112.5t94.5 -232.5t-92.5 -274.5t-473.5 -142.5h-432v1450zM920 1071q0 219 -312 219h-256v-454h238q149 0 210.5 33.5t90.5 79.5t29 122zM352 160h291q234 0 292 91t58 164
q0 138 -97 199.5t-249 61.5h-295v-516z" />
    <glyph glyph-name="C" unicode="C" horiz-adv-x="1441" 
d="M1196 1151q-132 176 -370 176q-112 0 -214 -49t-216.5 -177.5t-114.5 -379.5q0 -252 156 -425t407 -173t409 203l129 -109q-190 -254 -548 -254q-156 0 -291 57.5t-291 216.5t-156 488q0 160 54.5 299t152.5 241.5t233.5 162t289.5 59.5q344 0 520 -227z" />
    <glyph glyph-name="D" unicode="D" horiz-adv-x="1517" 
d="M154 1450h557q258 0 436.5 -141.5t226 -296t47.5 -287.5t-32.5 -238.5t-112.5 -222.5t-243.5 -190.5t-321.5 -73.5h-557v1450zM326 160h327q409 0 496.5 207.5t87.5 423.5t-159.5 357.5t-424.5 141.5h-327v-1130z" />
    <glyph glyph-name="E" unicode="E" horiz-adv-x="1214" 
d="M180 1450h912v-160h-740v-454h690v-160h-690v-516h776v-160h-948v1450z" />
    <glyph glyph-name="F" unicode="F" 
d="M180 1450h899v-160h-727v-479h676v-160h-676v-651h-172v1450z" />
    <glyph glyph-name="G" unicode="G" horiz-adv-x="1593" 
d="M96 725q0 172 60.5 312.5t226.5 295t491 154.5q324 0 515 -191l-129 -135q-74 80 -179.5 123t-223.5 43t-224.5 -45t-229 -170t-122.5 -385q0 -261 166 -432.5t434 -171.5q196 0 360 84v444h-334v160h506v-713q-241 -135 -561 -135t-538 211t-218 551z" />
    <glyph glyph-name="H" unicode="H" horiz-adv-x="1478" 
d="M180 1450h172v-614h774v614h172v-1450h-172v676h-774v-676h-172v1450z" />
    <glyph glyph-name="I" unicode="I" horiz-adv-x="532" 
d="M180 1450h172v-1450h-172v1450z" />
    <glyph glyph-name="J" unicode="J" horiz-adv-x="987" 
d="M807 375q0 -166 -99.5 -289t-314.5 -123q-154 0 -256 78t-131 233l172 35q16 -86 70.5 -136t137.5 -50q146 0 197.5 87t51.5 224v1016h172v-1075z" />
    <glyph glyph-name="K" unicode="K" horiz-adv-x="1290" 
d="M180 1450h172v-627h25l659 627h248l-717 -662l752 -788h-252l-690 737h-25v-737h-172v1450z" />
    <glyph glyph-name="L" unicode="L" horiz-adv-x="1024" 
d="M180 1450h172v-1290h664v-160h-836v1450z" />
    <glyph glyph-name="M" unicode="M" horiz-adv-x="1857" 
d="M180 1450h256l492 -1137h4l495 1137h250v-1450h-172v1217h-4l-520 -1217h-104l-521 1217h-4v-1217h-172v1450z" />
    <glyph glyph-name="N" unicode="N" horiz-adv-x="1593" 
d="M180 1450h217l840 -1204h4v1204h172v-1450h-217l-840 1204h-4v-1204h-172v1450z" />
    <glyph glyph-name="O" unicode="O" horiz-adv-x="1708" 
d="M854 -37q-166 0 -304 57.5t-239.5 159t-158 241.5t-56.5 304t56.5 304t158 241.5t239.5 159t304 57.5t304 -57.5t239.5 -159t158 -241.5t56.5 -304t-56.5 -304t-158 -241.5t-239.5 -159t-304 -57.5zM854 123q127 0 232.5 47t181 129t117.5 191.5t42 234.5t-42 234.5
t-117.5 191.5t-181 129t-232.5 47t-232.5 -47t-181 -129t-117.5 -191.5t-42 -234.5t42 -234.5t117.5 -191.5t181 -129t232.5 -47z" />
    <glyph glyph-name="P" unicode="P" horiz-adv-x="1214" 
d="M180 1450h430q353 0 430.5 -142t77.5 -258q0 -214 -144.5 -306.5t-330.5 -92.5h-291v-651h-172v1450zM352 811h291q129 0 210 58.5t81 181.5t-81 181t-210 58h-291v-479z" />
    <glyph glyph-name="Q" unicode="Q" horiz-adv-x="1708" 
d="M1683 0h-841q-160 0 -296 57.5t-235.5 156.5t-157 235.5t-57.5 294t57.5 294t157 235.5t235.5 156.5t295.5 57.5t296 -57.5t236 -156.5t156.5 -235.5t57 -261.5q0 -223 -98 -391t-254 -233v-5h448v-147zM441 329.5q160 -169.5 400 -169.5t401 169.5t161 414.5t-160.5 414
t-401 169t-400.5 -169.5t-160 -413.5q0 -245 160 -414.5z" />
    <glyph glyph-name="R" unicode="R" horiz-adv-x="1251" 
d="M180 1450h371q261 0 419 -79t158 -320q0 -160 -96 -258.5t-266 -124.5l412 -668h-211l-394 651h-221v-651h-172v1450zM352 811h154q202 0 278 26.5t118 75t42 132.5q0 147 -97 196t-253 49h-242v-479z" />
    <glyph glyph-name="S" unicode="S" 
d="M614 1327q-134 0 -226.5 -60t-92.5 -171t63.5 -167t241.5 -112q84 -27 163 -57.5t175 -105t96 -273.5q0 -198 -147.5 -308t-361.5 -110t-312 73t-135 128l147 121q47 -80 131 -121t159 -41q139 0 237 67.5t98 184.5q0 68 -22.5 109.5t-69.5 72.5t-119 55.5t-159 53.5
q-187 62 -278 149.5t-91 253.5q0 198 145.5 308t347.5 110q261 0 406 -170l-142 -123q-43 70 -114.5 101.5t-139.5 31.5z" />
    <glyph glyph-name="T" unicode="T" horiz-adv-x="1175" 
d="M1153 1290h-479v-1290h-172v1290h-479v160h1130v-160z" />
    <glyph glyph-name="U" unicode="U" horiz-adv-x="1441" 
d="M1268 553q0 -257 -132.5 -423.5t-415 -166.5t-414.5 166t-132 424v897h172v-872q0 -314 133 -384.5t288 -70.5t242 129t87 326v872h172v-897z" />
    <glyph glyph-name="V" unicode="V" horiz-adv-x="1251" 
d="M-18 1450h194l447 -1192h4l460 1192h183l-568 -1450h-165z" />
    <glyph glyph-name="W" unicode="W" horiz-adv-x="1972" 
d="M12 1450h191l329 -1204h5l356 1204h192l355 -1204h4l336 1204h180l-426 -1450h-186l-359 1229h-4l-360 -1229h-189z" />
    <glyph glyph-name="X" unicode="X" horiz-adv-x="1290" 
d="M522 764l-487 686h221l391 -567l387 567h215l-487 -686l534 -764h-227l-430 643l-432 -643h-213z" />
    <glyph glyph-name="Y" unicode="Y" horiz-adv-x="1216" 
d="M694 0h-172v625l-540 825h219l407 -655l420 655h207l-541 -825v-625z" />
    <glyph glyph-name="Z" unicode="Z" horiz-adv-x="1175" 
d="M72 1290v160h1034v-147l-838 -1143h848v-160h-1057v154l838 1136h-825z" />
    <glyph glyph-name="bracketleft" unicode="[" horiz-adv-x="530" 
d="M395 1376h-190v-1573h190v-122h-338v1818h338v-123z" />
    <glyph glyph-name="backslash" unicode="\" horiz-adv-x="757" 
d="M6 1487l129 49l617 -1573l-129 -51z" />
    <glyph glyph-name="bracketright" unicode="]" horiz-adv-x="530" 
d="M135 1499h338v-1818h-338v122h191v1573h-191v123z" />
    <glyph glyph-name="asciicircum" unicode="^" horiz-adv-x="1363" 
d="M621 1450h122l457 -887h-151l-367 715l-367 -715h-151z" />
    <glyph glyph-name="underscore" unicode="_" horiz-adv-x="1024" 
d="M0 -154h1024v-102h-1024v102z" />
    <glyph glyph-name="grave" unicode="`" horiz-adv-x="491" 
d="M387 1155h-145l-293 295h225z" />
    <glyph glyph-name="a" unicode="a" horiz-adv-x="1062" 
d="M524 836q-171 0 -284 -105l-101 105q74 76 175.5 111.5t205.5 35.5q213 0 307.5 -100.5t94.5 -304.5v-412q0 -80 14 -166h-154q-10 41 -10 143h-4q-47 -74 -126 -121t-171 -47q-172 0 -273.5 76.5t-101.5 201.5q0 126 61.5 193.5t174.5 108.5t368 41h62v29
q0 104 -62.5 157.5t-175.5 53.5zM602 461q-334 0 -334 -185q0 -90 60.5 -127.5t140.5 -37.5q142 0 215.5 82t77.5 206v62h-160z" />
    <glyph glyph-name="b" unicode="b" horiz-adv-x="1251" 
d="M307 819q139 164 354 164t354.5 -143.5t139.5 -360t-138 -360.5t-341 -144q-129 0 -226.5 56.5t-142.5 138.5h-4v-170h-160v1548h160v-729h4zM303 479q0 -76 23.5 -140.5t68.5 -112.5t107.5 -75.5t140.5 -27.5t140.5 27.5t107.5 75.5t68.5 112.5t23.5 140.5t-23.5 140.5
t-68.5 112.5t-107.5 76t-140.5 28t-140.5 -28t-107.5 -76t-68.5 -112.5t-23.5 -140.5z" />
    <glyph glyph-name="c" unicode="c" horiz-adv-x="987" 
d="M834 719q-98 117 -249 117t-234 -102t-83 -252.5t89 -254.5t241 -104t238 119l118 -113q-135 -154 -361 -154t-361.5 142t-135.5 362q0 219 138.5 361.5t362.5 142.5t364 -152z" />
    <glyph glyph-name="d" unicode="d" horiz-adv-x="1251" 
d="M948 819v729h160v-1548h-160v170h-4q-45 -82 -142 -138.5t-212 -56.5t-203 38t-152.5 105.5t-101.5 160t-37 255t139.5 306t355.5 143.5t353 -164h4zM948 479q0 76 -23.5 140.5t-68.5 112.5t-107.5 76t-140.5 28t-140 -28t-107.5 -76t-69 -112.5t-23.5 -140.5
t23.5 -140.5t69 -112.5t107.5 -75.5t140 -27.5t140.5 27.5t107.5 75.5t68.5 112.5t23.5 140.5z" />
    <glyph glyph-name="e" unicode="e" 
d="M593 -25q-230 0 -363.5 144t-133.5 363t139 360t348 141t334 -133t125 -369v-51h-774q8 -125 97 -216t205 -91t187.5 37t129.5 108l121 -94q-86 -111 -188.5 -155t-226.5 -44zM582 836q-133 0 -215 -74t-99 -197h602q-4 123 -79.5 197t-208.5 74z" />
    <glyph glyph-name="f" unicode="f" horiz-adv-x="645" 
d="M233 1174q0 399 340 399q81 0 123 -25l-22 -143q-58 20 -114 20q-106 0 -136.5 -65.5t-30.5 -220.5v-181h234v-135h-234v-823h-160v823h-208v135h208v216z" />
    <glyph glyph-name="g" unicode="g" horiz-adv-x="1251" 
d="M586 -344q362 0 362 387v123h-4q-57 -92 -149.5 -135t-196.5 -43q-218 0 -360 138.5t-142 362.5q0 223 139.5 358.5t370.5 135.5q167 0 240.5 -70.5t97.5 -117.5h4v163h160v-915q0 -262 -134 -398.5t-388 -136.5q-141 0 -255 41t-216 142l114 131q76 -82 161 -124
t196 -42zM367 235.5q99 -100.5 247 -100.5t241 101.5t93 251.5t-94.5 249t-245 99t-245.5 -102.5t-95 -250.5q0 -147 99 -247.5z" />
    <glyph glyph-name="h" unicode="h" 
d="M152 1548h159v-723h4q55 100 153.5 129t173.5 29t210 -56t135 -335v-592h-160v575q0 121 -53 191t-166 70q-223 0 -260 -143.5t-37 -225.5v-467h-159v1548z" />
    <glyph glyph-name="i" unicode="i" horiz-adv-x="491" 
d="M166 958h160v-958h-160v958zM129 1331q0 49 34 84t83 35t82.5 -35t33.5 -84t-32.5 -81.5t-83.5 -32.5t-84 32.5t-33 81.5z" />
    <glyph glyph-name="j" unicode="j" horiz-adv-x="491" 
d="M326 -215q0 -172 -98.5 -224.5t-174.5 -52.5t-123 21l19 139q39 -12 81 -12q80 0 108 53.5t28 149.5v1099h160v-1173zM129 1331q0 49 34 84t83 35t82.5 -35t33.5 -84t-32.5 -81.5t-83.5 -32.5t-84 32.5t-33 81.5z" />
    <glyph glyph-name="k" unicode="k" horiz-adv-x="1024" 
d="M152 1548h159v-1011l437 421h227l-463 -436l510 -522h-236l-475 504v-504h-159v1548z" />
    <glyph glyph-name="l" unicode="l" horiz-adv-x="491" 
d="M166 1548h160v-1548h-160v1548z" />
    <glyph glyph-name="m" unicode="m" horiz-adv-x="1744" 
d="M606 983q150 0 213 -50t107 -132q53 86 122.5 134t175.5 48q200 0 284.5 -102.5t84.5 -298.5v-582h-159v573q0 181 -82 222t-142 41q-113 0 -185.5 -78.5t-72.5 -204.5v-553h-159v543q0 160 -43.5 226.5t-131.5 66.5q-161 0 -234 -100t-73 -269v-467h-159v731l-9 227h152
l4 -157h4q34 74 121 128t182 54z" />
    <glyph glyph-name="n" unicode="n" 
d="M614 983q190 0 281.5 -104.5t91.5 -286.5v-592h-160v575q0 121 -53 191t-166 70q-223 0 -260 -143.5t-37 -225.5v-467h-159v731l-9 227h152l4 -157h4q34 74 121 128t190 54z" />
    <glyph glyph-name="o" unicode="o" horiz-adv-x="1216" 
d="M96 479.5q0 112.5 39 204.5t106.5 158.5t162 103.5t205 37t204.5 -37t161.5 -103.5t106.5 -158.5t39 -204.5t-39 -205t-106.5 -159t-161.5 -103.5t-204.5 -37t-205 37t-162 103.5t-106.5 159t-39 205zM268 479q0 -76 23.5 -140.5t69 -112.5t107.5 -75.5t140 -27.5
t140.5 27.5t107.5 75.5t68.5 112.5t23.5 140.5t-23.5 140.5t-68.5 112.5t-107.5 76t-140.5 28t-140 -28t-107.5 -76t-69 -112.5t-23.5 -140.5z" />
    <glyph glyph-name="p" unicode="p" horiz-adv-x="1251" 
d="M307 819q139 164 354 164t354.5 -143.5t139.5 -360t-138 -360.5t-341 -144q-129 0 -226.5 56.5t-142.5 138.5h-4v-637h-160v1425h160v-139h4zM303 479q0 -76 23.5 -140.5t68.5 -112.5t107.5 -75.5t140.5 -27.5t140.5 27.5t107.5 75.5t68.5 112.5t23.5 140.5t-23.5 140.5
t-68.5 112.5t-107.5 76t-140.5 28t-140.5 -28t-107.5 -76t-68.5 -112.5t-23.5 -140.5z" />
    <glyph glyph-name="q" unicode="q" horiz-adv-x="1251" 
d="M944 139q-139 -164 -354 -164t-354.5 143.5t-139.5 358.5t139 360.5t340 145.5q129 0 226.5 -56.5t142.5 -138.5h4v170h160v-1425h-160v606h-4zM948 479q0 76 -23.5 140.5t-68.5 112.5t-107.5 76t-140.5 28t-140 -28t-107.5 -76t-69 -112.5t-23.5 -140.5t23.5 -140.5
t69 -112.5t107.5 -75.5t140 -27.5t140.5 27.5t107.5 75.5t68.5 112.5t23.5 140.5z" />
    <glyph glyph-name="r" unicode="r" horiz-adv-x="720" 
d="M592 823q-281 0 -281 -356v-467h-159v731l-9 227h152l4 -157h4q34 74 121 128t199 54q38 0 65 -10l-10 -162q-41 12 -86 12z" />
    <glyph glyph-name="s" unicode="s" horiz-adv-x="872" 
d="M172 252q104 -129 222 -129q110 0 154 26.5t62.5 54t18.5 80.5t-53 85.5t-137 49.5q-179 37 -266 92.5t-87 190.5q0 134 109.5 207.5t230.5 73.5q252 0 344 -174l-133 -88q-70 115 -196 115t-160.5 -50.5t-34.5 -82.5q0 -55 68.5 -88.5t152.5 -48.5q168 -30 251 -94
t83 -206t-111.5 -216.5t-253.5 -74.5q-141 0 -230 38t-161 141z" />
    <glyph glyph-name="t" unicode="t" horiz-adv-x="720" 
d="M233 297v526h-208v135h208v273h160v-273h283v-135h-283v-479q0 -119 25 -170t111 -51q85 0 149 33l6 -146q-80 -35 -176 -35q-168 0 -221.5 77t-53.5 245z" />
    <glyph glyph-name="u" unicode="u" 
d="M498 -25q-76 0 -211 57t-135 335v591h159v-575q0 -121 53.5 -190.5t148.5 -69.5q169 0 241.5 98.5t72.5 270.5v466h160v-731l8 -227h-151l-4 158h-4q-55 -121 -158.5 -152t-179.5 -31z" />
    <glyph glyph-name="v" unicode="v" horiz-adv-x="987" 
d="M588 0h-176l-392 958h187l299 -751h4l285 751h172z" />
    <glyph glyph-name="w" unicode="w" horiz-adv-x="1517" 
d="M1180 0h-158l-272 737h-5l-241 -737h-164l-311 958h176l219 -737h4l248 737h168l252 -737h4l217 737h172z" />
    <glyph glyph-name="x" unicode="x" horiz-adv-x="1024" 
d="M399 516l-344 442h209l254 -344l240 344h194l-329 -442l395 -516h-211l-303 414l-299 -414h-199z" />
    <glyph glyph-name="y" unicode="y" horiz-adv-x="987" 
d="M176 -344q76 0 113 43t63 115l66 180l-398 964h187l297 -751h4l285 751h174l-463 -1177q-60 -146 -123.5 -209.5t-196.5 -63.5q-91 0 -143 25l20 139q39 -16 115 -16z" />
    <glyph glyph-name="z" unicode="z" horiz-adv-x="909" 
d="M86 823v135h748v-122l-564 -701h578v-135h-787v125l564 698h-539z" />
    <glyph glyph-name="braceleft" unicode="{" horiz-adv-x="681" 
d="M602 1376h-110q-87 0 -94 -65.5t-7 -96.5v-360q0 -122 -59.5 -185.5t-116.5 -76.5v-4q56 -6 116 -68t60 -196v-359q0 -76 22 -119t79 -43h110v-122h-143q-85 0 -150 70t-65 186v358q0 102 -52 167.5t-124 65.5v123q69 0 122.5 64.5t53.5 167.5v360q0 114 66.5 185
t148.5 71h143v-123z" />
    <glyph glyph-name="bar" unicode="|" horiz-adv-x="454" 
d="M295 1536v-2048h-135v2048h135z" />
    <glyph glyph-name="braceright" unicode="}" horiz-adv-x="681" 
d="M190 -197q101 0 101 162v359q0 134 60 196t116 68v4q-57 13 -116.5 76.5t-59.5 185.5v360q0 117 -34 139.5t-67 22.5h-110v123h143q82 0 148.5 -71t66.5 -185v-360q0 -103 53.5 -167.5t122.5 -64.5v-123q-112 0 -144 -89t-32 -144v-358q0 -116 -65 -186t-150 -70h-143
v122h110z" />
    <glyph glyph-name="asciitilde" unicode="~" horiz-adv-x="1363" 
d="M891 483q-51 0 -102.5 19.5t-106.5 44.5t-110.5 50.5t-121.5 25.5t-106.5 -45.5t-64.5 -98.5l-68 99q56 81 113.5 130.5t127.5 49.5t121.5 -19.5t106.5 -44.5t110.5 -50.5t121.5 -25.5t106.5 45.5t66.5 98.5l68 -98q-73 -96 -104 -122t-69 -42.5t-89 -16.5z" />
    <glyph glyph-name="uni00A0" unicode="&#xa0;" horiz-adv-x="569" 
 />
    <glyph glyph-name="exclamdown" unicode="&#xa1;" horiz-adv-x="569" 
d="M199 590h172v-1045h-172v1045zM284.5 762q-51.5 0 -87 36t-35.5 87t38 87t85 36t85 -36t38 -87t-36 -87t-87.5 -36z" />
    <glyph glyph-name="cent" unicode="&#xa2;" 
d="M309 479q0 -131 70 -228t188 -126v706q-129 -25 -193.5 -123t-64.5 -229zM666 -160h-99v135q-193 24 -311.5 162.5t-118.5 340.5q0 203 117.5 341t312.5 158v141h99v-135q205 -8 335 -152l-127 -112q-86 104 -208 117v-713q131 8 211 119l118 -113q-118 -139 -329 -154
v-135z" />
    <glyph glyph-name="sterling" unicode="&#xa3;" 
d="M772 1327q-209 0 -235.5 -138t-26.5 -218v-160h332v-135h-332v-516h504v-160h-897v160h221v516h-197v135h197v164q0 252 119 376t319.5 124t329.5 -127l-113 -121q-100 100 -221 100z" />
    <glyph glyph-name="currency" unicode="&#xa4;" 
d="M818 471q104 111 104 257t-104 254t-248.5 108t-248.5 -107.5t-104 -254.5q0 -148 104.5 -258t248.5 -110t248 111zM568 213q-168 0 -310 113l-111 -113l-90 90l111 113q-111 139 -111 313t111 307l-111 111l90 90l111 -109q140 109 313 109t310 -109l110 109l90 -90
l-110 -111q111 -133 111 -307t-111 -313l110 -113l-90 -90l-110 113q-145 -113 -313 -113z" />
    <glyph glyph-name="yen" unicode="&#xa5;" 
d="M483 356h-325v123h325v146l-18 32h-307v123h233l-391 670h205l364 -670l365 670h205l-391 -670h233v-123h-307l-19 -32v-146h326v-123h-326v-356h-172v356z" />
    <glyph glyph-name="brokenbar" unicode="&#xa6;" horiz-adv-x="454" 
d="M295 1382v-716h-135v716h135zM295 358v-716h-135v716h135z" />
    <glyph glyph-name="section" unicode="&#xa7;" 
d="M354 913q-157 89 -157 244t118 242.5t275 87.5q111 0 183.5 -34t111.5 -70.5t63 -88.5l-153 -84q-25 68 -85.5 98.5t-112.5 30.5q-102 0 -165 -44.5t-63 -138.5q0 -93 90 -140l200 -101q143 -67 198.5 -116t84.5 -100.5t29 -120.5q0 -175 -176 -273q141 -92 141 -255
t-123 -254t-275 -91q-324 0 -423 252l157 74q55 -178 258 -178q151 0 186.5 69.5t35.5 115.5t-19.5 77.5t-50.5 55.5t-66.5 41t-68.5 34l-250 131q-150 77 -150 257t207 279zM799 545q0 81 -55 131.5t-144 93.5l-119 59q-79 -31 -126.5 -69.5t-47.5 -106.5q0 -101 73 -138.5
t103 -51.5l183 -88q51 23 92 71t41 99z" />
    <glyph glyph-name="dieresis" unicode="&#xa8;" horiz-adv-x="491" 
d="M43 1401q47 0 79 -33t32 -79t-32 -77.5t-79 -31.5t-79 31.5t-32 77.5t32 79t79 33zM448.5 1401q47.5 0 79 -33t31.5 -79t-31.5 -77.5t-79 -31.5t-79 31.5t-31.5 77.5t31.5 79t79 33z" />
    <glyph glyph-name="copyright" unicode="&#xa9;" horiz-adv-x="1638" 
d="M868 258q-122 0 -206 36t-143.5 98.5t-91.5 147.5t-32 237.5t120.5 282.5t328.5 130q148 0 252.5 -79t130.5 -230h-125q-16 86 -85 142t-158 56q-161 0 -245 -98.5t-84 -251.5t89 -256.5t231 -103.5q102 0 169.5 59t82.5 150h127q-33 -147 -136 -233.5t-225 -86.5z
M57 724q0 163 60.5 303t165 241.5t243 160t294 58.5t293.5 -58.5t242.5 -160t165 -241.5t60.5 -303t-60.5 -302t-165 -240.5t-242.5 -160t-293.5 -58.5t-294 58.5t-243 160t-165 240.5t-60.5 302zM193 724q0 -138 49 -257t133 -206t198.5 -137t310.5 -50t379 187t183 464
q0 137 -49 257t-134 207t-199 137t-245 50t-245.5 -50t-198.5 -137t-133 -207t-49 -258z" />
    <glyph glyph-name="ordfeminine" unicode="&#xaa;" horiz-adv-x="690" 
d="M339 1475q150 0 212.5 -60.5t62.5 -183.5v-262q0 -48 9 -88h-125q-6 49 -6 92h-5q-53 -105 -204 -105q-94 0 -154.5 44t-60.5 126t39.5 121t109.5 61.5t227 22.5h48v29q0 29 -37 60.5t-105 31.5t-118 -20.5t-72 -43.5l-64 86q93 89 243 89zM203.5 1045q0.5 -66 132.5 -66
q68 0 112 43t44 88v35h-99q-84 0 -137 -17t-52.5 -83z" />
    <glyph glyph-name="guillemotleft" unicode="&#xab;" horiz-adv-x="1024" 
d="M285 492l239 -365l-112 -74l-293 439l293 438l112 -74zM666 492l239 -365l-112 -74l-293 439l293 438l112 -74z" />
    <glyph glyph-name="logicalnot" unicode="&#xac;" horiz-adv-x="1363" 
d="M147 848h1070v-569h-136v434h-934v135z" />
    <glyph glyph-name="uni00AD" unicode="&#xad;" horiz-adv-x="681" 
d="M90 565h502v-147h-502v147z" />
    <glyph glyph-name="registered" unicode="&#xae;" horiz-adv-x="1638" 
d="M528 1171h336q311 0 312 -253q0 -121 -68 -177.5t-168 -66.5l256 -393h-145l-242 383h-145v-383h-136v890zM664 774h139q118 0 177.5 26.5t59.5 116.5q0 89 -55 116.5t-143 27.5h-178v-287zM57 724q0 163 60.5 303t165 241.5t243 160t294 58.5t293.5 -58.5t242.5 -160
t165 -241.5t60.5 -303t-60.5 -302t-165 -240.5t-242.5 -160t-293.5 -58.5t-294 58.5t-243 160t-165 240.5t-60.5 302zM193 724q0 -138 49 -257t133 -206t198.5 -137t310.5 -50t379 187t183 464q0 137 -49 257t-134 207t-199 137t-245 50t-245.5 -50t-198.5 -137t-133 -207
t-49 -258z" />
    <glyph glyph-name="macron" unicode="&#xaf;" horiz-adv-x="491" 
d="M528 1229h-565v123h565v-123z" />
    <glyph glyph-name="degree" unicode="&#xb0;" horiz-adv-x="819" 
d="M117 1181.5q0 61.5 22.5 115t62.5 93.5t93 62.5t114.5 22.5t115 -22.5t93 -62.5t62 -93.5t22.5 -115t-22.5 -114.5t-62 -93t-93 -62.5t-115 -22.5t-114.5 22.5t-93 62.5t-62.5 93t-22.5 114.5zM227 1181.5q0 -30.5 13.5 -63.5t37 -59.5t57.5 -43t75 -16.5t74.5 16.5
t57 43t37 59.5t13.5 63.5t-13.5 63.5t-37 59.5t-57 43t-74.5 16.5t-75 -16.5t-57.5 -43t-37 -59.5t-13.5 -63.5z" />
    <glyph glyph-name="plusminus" unicode="&#xb1;" horiz-adv-x="1363" 
d="M147 811h467v344h136v-344h467v-135h-467v-344h-136v344h-467v135zM147 221h1070v-135h-1070v135z" />
    <glyph glyph-name="twosuperior" unicode="&#xb2;" horiz-adv-x="739" 
d="M530 1220q0 67 -44 105.5t-106 38.5t-108.5 -37t-58.5 -100l-129 10q18 123 99 180.5t200 57.5t201 -65.5t82 -192.5t-74 -197t-109 -100l-245 -213v-5h436v-110h-608v119l344 309q57 51 88.5 92t31.5 108z" />
    <glyph glyph-name="threesuperior" unicode="&#xb3;" horiz-adv-x="739" 
d="M365 690q68 0 122 36t54 96q0 169 -222 169h-32v111h35q121 0 154.5 47t33.5 103t-43 84t-102 28q-124 0 -166 -86l-113 51q73 146 279 146q117 0 198.5 -59.5t81.5 -168.5q0 -68 -45 -123t-117 -75v-5q92 -12 142.5 -73t50.5 -133q0 -128 -89.5 -193t-208.5 -65
t-199.5 42t-115.5 146l111 47q50 -125 191 -125z" />
    <glyph glyph-name="acute" unicode="&#xb4;" horiz-adv-x="491" 
d="M317 1450h226l-293 -295h-146z" />
    <glyph glyph-name="mu" unicode="&#xb5;" 
d="M516 -25q-121 0 -205 52v-494h-159v1425h159v-575q0 -121 53.5 -190.5t148.5 -69.5q169 0 241.5 98.5t72.5 270.5v466h160v-731l8 -227h-151l-4 158h-4q-55 -121 -158 -152t-162 -31z" />
    <glyph glyph-name="paragraph" unicode="&#xb6;" horiz-adv-x="1228" 
d="M598 647q-186 0 -307 109.5t-121 271.5q0 201 125 311.5t342 110.5h498v-1708h-148v1573h-242v-1573h-147v905z" />
    <glyph glyph-name="periodcentered" unicode="&#xb7;" horiz-adv-x="569" 
d="M284.5 756q51.5 0 87.5 -36t36 -87t-38 -87t-85 -36t-85 36t-38 87t35.5 87t87 36z" />
    <glyph glyph-name="cedilla" unicode="&#xb8;" horiz-adv-x="491" 
d="M416 -159.5q51 -36.5 51 -95.5q0 -102 -71 -145.5t-147 -43.5q-136 0 -224 43l34 75q72 -32 150 -32t100.5 29.5t22.5 63.5t-36 51t-68 17t-83 -16l-41 39l127 174h93l-93 -131q56 8 95 8t90 -36.5z" />
    <glyph glyph-name="onesuperior" unicode="&#xb9;" horiz-adv-x="739" 
d="M354 1313h-4l-166 -135l-67 94l254 190h118v-870h-135v721z" />
    <glyph glyph-name="ordmasculine" unicode="&#xba;" horiz-adv-x="790" 
d="M636 1390.5q93 -84.5 93 -218.5t-93 -219t-240 -85t-241 84t-94 220t94 219.5t241 83.5t240 -84.5zM253 1035.5q56 -56.5 142 -56.5t142.5 56.5t56.5 136t-56.5 136t-142.5 56.5t-142 -56t-56 -136t56 -136.5z" />
    <glyph glyph-name="guillemotright" unicode="&#xbb;" horiz-adv-x="1024" 
d="M358 492l-239 364l112 74l293 -438l-293 -439l-112 74zM739 492l-239 364l112 74l293 -438l-293 -439l-112 74z" />
    <glyph glyph-name="onequarter" unicode="&#xbc;" horiz-adv-x="1708" 
d="M1513 295h115v-111h-115v-184h-135v184h-399v129l375 557h159v-575zM1214 1516l113 -66l-909 -1516l-113 66zM1378 711h-4l-272 -416h276v416zM317 1315h-4l-166 -137l-67 94l254 190h119v-870h-136v723z" />
    <glyph glyph-name="onehalf" unicode="&#xbd;" horiz-adv-x="1708" 
d="M1180 1516l112 -66l-909 -1516l-113 66zM305 1315h-4l-166 -137l-67 94l254 190h118v-870h-135v723zM1497 628q0 67 -44.5 105.5t-106.5 38.5t-108 -37t-58 -100l-129 10q18 123 99 180.5t200 57.5t200.5 -65.5t81.5 -192.5t-73.5 -197t-108.5 -100l-246 -213v-4h436
v-111h-608v119l344 309q57 51 89 92t32 108z" />
    <glyph glyph-name="threequarters" unicode="&#xbe;" horiz-adv-x="1708" 
d="M1542 295h115v-111h-115v-184h-135v184h-399v129l374 557h160v-575zM1294 1516l113 -66l-909 -1516l-113 66zM1407 711h-4l-273 -412v-4h277v416zM354 690q68 0 122 36t54 96q0 168 -221 169h-33v111h33q121 0 156 47t35 103t-43 84t-103 28q-122 0 -166 -86l-112 51
q73 146 278 146q118 0 199.5 -59.5t81.5 -168.5q0 -68 -45 -123t-117 -75v-5q92 -12 142.5 -73t50.5 -133q0 -127 -90 -192.5t-209 -65.5t-200 42t-116 146l113 47q50 -125 190 -125z" />
    <glyph glyph-name="questiondown" unicode="&#xbf;" horiz-adv-x="987" 
d="M451 -492q-129 0 -242 96.5t-113 264.5q0 169 93.5 262.5t133.5 130.5q71 66 88 105.5t17 128.5v94h172v-129q0 -106 -23.5 -148.5t-51 -72t-62.5 -65.5t-108.5 -109.5t-73.5 -193.5q0 -91 56.5 -153.5t160.5 -62.5t168.5 61.5t81.5 161.5l184 -20q-42 -250 -197 -300.5
t-284 -50.5zM514 762q-51 0 -87 36t-36 87t38 87t85 36t85 -36t38 -87t-36 -87t-87 -36z" />
    <glyph glyph-name="Agrave" unicode="&#xc0;" horiz-adv-x="1441" 
d="M651 1450h162l617 -1450h-201l-148 356h-725l-149 -356h-195zM729 1229h-4l-301 -713h592zM862 1552h-145l-293 295h225z" />
    <glyph glyph-name="Aacute" unicode="&#xc1;" horiz-adv-x="1441" 
d="M651 1450h162l617 -1450h-201l-148 356h-725l-149 -356h-195zM729 1229h-4l-301 -713h592zM793 1847h225l-293 -295h-145z" />
    <glyph glyph-name="Acircumflex" unicode="&#xc2;" horiz-adv-x="1441" 
d="M651 1450h162l617 -1450h-201l-148 356h-725l-149 -356h-195zM729 1229h-4l-301 -713h592zM627 1847h186l229 -295h-165l-162 209l-160 -209h-156z" />
    <glyph glyph-name="Atilde" unicode="&#xc3;" horiz-adv-x="1441" 
d="M651 1450h162l617 -1450h-201l-148 356h-725l-149 -356h-195zM729 1229h-4l-301 -713h592zM571 1667q-68 0 -94 -90h-98q22 142 91 177.5t115 35.5t88 -15.5t78 -29.5t59.5 -25.5t55.5 -11.5q72 0 99 90h98q-22 -143 -83.5 -178t-115.5 -35q-54 -1 -121 27t-102 41.5
t-70 13.5z" />
    <glyph glyph-name="Adieresis" unicode="&#xc4;" horiz-adv-x="1441" 
d="M651 1450h162l617 -1450h-201l-148 356h-725l-149 -356h-195zM729 1229h-4l-301 -713h592zM518 1798q47 0 79 -32.5t32 -78.5t-32 -78t-79 -32t-78.5 31.5t-31.5 77.5t31.5 79t78.5 33zM924 1798q47 0 78.5 -32.5t31.5 -78.5t-31.5 -78t-78.5 -32t-79 31.5t-32 77.5
t32 79t79 33z" />
    <glyph glyph-name="Aring" unicode="&#xc5;" horiz-adv-x="1441" 
d="M651 1450h162l617 -1450h-201l-148 356h-725l-149 -356h-195zM729 1229h-4l-301 -713h592zM722 1901q89 0 145.5 -60.5t56.5 -143.5t-57.5 -142.5t-145.5 -59.5t-145.5 59.5t-57.5 142.5t57.5 143.5t146.5 60.5zM604 1697q0 -50 36 -83t81 -33t81 33t36 83t-36 84t-81 34
t-81 -34t-36 -84z" />
    <glyph glyph-name="AE" unicode="&#xc6;" horiz-adv-x="1933" 
d="M1812 1450v-160h-602v-454h566v-160h-566v-516h627v-160h-799v393h-600l-252 -393h-206l942 1450h890zM1038 1290h-24l-473 -737h497v737z" />
    <glyph glyph-name="Ccedilla" unicode="&#xc7;" horiz-adv-x="1441" 
d="M1196 1151q-132 176 -370 176q-112 0 -214 -49t-216.5 -177.5t-114.5 -379.5q0 -252 156 -425t407 -173t409 203l129 -109q-190 -254 -548 -254l-66 -94q56 8 78 8q56 0 107 -36.5t51 -95.5q0 -102 -71 -145.5t-147 -43.5q-137 0 -225 43l35 75q72 -32 151 -32t100 29.5
t21 63.5t-35 51t-69 17t-82 -16l-41 39l104 143q-278 28 -463.5 239.5t-185.5 516.5q0 160 54.5 299t152.5 241.5t233.5 162t289.5 59.5q344 0 520 -227z" />
    <glyph glyph-name="Egrave" unicode="&#xc8;" horiz-adv-x="1214" 
d="M180 1450h912v-160h-740v-454h690v-160h-690v-516h776v-160h-948v1450zM750 1552h-146l-293 295h226z" />
    <glyph glyph-name="Eacute" unicode="&#xc9;" horiz-adv-x="1214" 
d="M180 1450h912v-160h-740v-454h690v-160h-690v-516h776v-160h-948v1450zM680 1847h225l-293 -295h-145z" />
    <glyph glyph-name="Ecircumflex" unicode="&#xca;" horiz-adv-x="1214" 
d="M180 1450h912v-160h-740v-454h690v-160h-690v-516h776v-160h-948v1450zM514 1847h186l230 -295h-166l-162 209l-160 -209h-155z" />
    <glyph glyph-name="Edieresis" unicode="&#xcb;" horiz-adv-x="1214" 
d="M180 1450h912v-160h-740v-454h690v-160h-690v-516h776v-160h-948v1450zM405.5 1798q47.5 0 79 -32.5t31.5 -78.5t-31.5 -78t-79 -32t-79 31.5t-31.5 77.5t31.5 79t79 33zM811 1798q47 0 79 -32.5t32 -78.5t-32 -78t-79 -32t-79 31.5t-32 77.5t32 79t79 33z" />
    <glyph glyph-name="Igrave" unicode="&#xcc;" horiz-adv-x="532" 
d="M180 1450h172v-1450h-172v1450zM408 1552h-146l-293 295h226z" />
    <glyph glyph-name="Iacute" unicode="&#xcd;" horiz-adv-x="532" 
d="M180 1450h172v-1450h-172v1450zM338 1847h225l-293 -295h-145z" />
    <glyph glyph-name="Icircumflex" unicode="&#xce;" horiz-adv-x="532" 
d="M180 1450h172v-1450h-172v1450zM172 1847h186l230 -295h-166l-162 209l-160 -209h-155z" />
    <glyph glyph-name="Idieresis" unicode="&#xcf;" horiz-adv-x="532" 
d="M180 1450h172v-1450h-172v1450zM63.5 1798q47.5 0 79 -32.5t31.5 -78.5t-31.5 -78t-79 -32t-79 31.5t-31.5 77.5t31.5 79t79 33zM469 1798q47 0 79 -32.5t32 -78.5t-32 -78t-79 -32t-79 31.5t-32 77.5t32 79t79 33z" />
    <glyph glyph-name="Eth" unicode="&#xd0;" horiz-adv-x="1517" 
d="M154 1450h557q258 0 436.5 -141.5t226 -296t47.5 -287.5t-32.5 -238.5t-112.5 -222.5t-243.5 -190.5t-321.5 -73.5h-557v688h-148v135h148v627zM326 823h516v-135h-516v-528h327q409 0 496.5 207.5t87.5 423.5t-159.5 357.5t-424.5 141.5h-327v-467z" />
    <glyph glyph-name="Ntilde" unicode="&#xd1;" horiz-adv-x="1593" 
d="M180 1450h217l840 -1204h4v1204h172v-1450h-217l-840 1204h-4v-1204h-172v1450zM647 1667q-68 0 -94 -90h-98q22 141 90.5 177t114.5 36t88 -15.5t78 -29.5t59.5 -25.5t56.5 -11.5q74 0 98 90h99q-22 -144 -84 -178.5t-115 -34.5q-53 -1 -121 27t-102.5 41.5t-69.5 13.5z
" />
    <glyph glyph-name="Ograve" unicode="&#xd2;" horiz-adv-x="1708" 
d="M854 -37q-166 0 -304 57.5t-239.5 159t-158 241.5t-56.5 304t56.5 304t158 241.5t239.5 159t304 57.5t304 -57.5t239.5 -159t158 -241.5t56.5 -304t-56.5 -304t-158 -241.5t-239.5 -159t-304 -57.5zM854 123q127 0 232.5 47t181 129t117.5 191.5t42 234.5t-42 234.5
t-117.5 191.5t-181 129t-232.5 47t-232.5 -47t-181 -129t-117.5 -191.5t-42 -234.5t42 -234.5t117.5 -191.5t181 -129t232.5 -47zM995 1552h-145l-293 295h225z" />
    <glyph glyph-name="Oacute" unicode="&#xd3;" horiz-adv-x="1708" 
d="M854 -37q-166 0 -304 57.5t-239.5 159t-158 241.5t-56.5 304t56.5 304t158 241.5t239.5 159t304 57.5t304 -57.5t239.5 -159t158 -241.5t56.5 -304t-56.5 -304t-158 -241.5t-239.5 -159t-304 -57.5zM854 123q127 0 232.5 47t181 129t117.5 191.5t42 234.5t-42 234.5
t-117.5 191.5t-181 129t-232.5 47t-232.5 -47t-181 -129t-117.5 -191.5t-42 -234.5t42 -234.5t117.5 -191.5t181 -129t232.5 -47zM926 1847h225l-293 -295h-145z" />
    <glyph glyph-name="Ocircumflex" unicode="&#xd4;" horiz-adv-x="1708" 
d="M854 -37q-166 0 -304 57.5t-239.5 159t-158 241.5t-56.5 304t56.5 304t158 241.5t239.5 159t304 57.5t304 -57.5t239.5 -159t158 -241.5t56.5 -304t-56.5 -304t-158 -241.5t-239.5 -159t-304 -57.5zM854 123q127 0 232.5 47t181 129t117.5 191.5t42 234.5t-42 234.5
t-117.5 191.5t-181 129t-232.5 47t-232.5 -47t-181 -129t-117.5 -191.5t-42 -234.5t42 -234.5t117.5 -191.5t181 -129t232.5 -47zM760 1847h186l230 -295h-166l-162 209l-160 -209h-156z" />
    <glyph glyph-name="Otilde" unicode="&#xd5;" horiz-adv-x="1708" 
d="M854 -37q-166 0 -304 57.5t-239.5 159t-158 241.5t-56.5 304t56.5 304t158 241.5t239.5 159t304 57.5t304 -57.5t239.5 -159t158 -241.5t56.5 -304t-56.5 -304t-158 -241.5t-239.5 -159t-304 -57.5zM854 123q127 0 232.5 47t181 129t117.5 191.5t42 234.5t-42 234.5
t-117.5 191.5t-181 129t-232.5 47t-232.5 -47t-181 -129t-117.5 -191.5t-42 -234.5t42 -234.5t117.5 -191.5t181 -129t232.5 -47zM705 1667q-67 0 -95 -90h-98q22 142 91 177.5t115 35.5t88 -15.5t78 -29.5t59.5 -25.5t55.5 -11.5q72 0 99 90h98q-22 -143 -83.5 -178
t-114.5 -35q-53 -1 -121 27t-103 41.5t-69 13.5z" />
    <glyph glyph-name="Odieresis" unicode="&#xd6;" horiz-adv-x="1708" 
d="M854 -37q-166 0 -304 57.5t-239.5 159t-158 241.5t-56.5 304t56.5 304t158 241.5t239.5 159t304 57.5t304 -57.5t239.5 -159t158 -241.5t56.5 -304t-56.5 -304t-158 -241.5t-239.5 -159t-304 -57.5zM854 123q127 0 232.5 47t181 129t117.5 191.5t42 234.5t-42 234.5
t-117.5 191.5t-181 129t-232.5 47t-232.5 -47t-181 -129t-117.5 -191.5t-42 -234.5t42 -234.5t117.5 -191.5t181 -129t232.5 -47zM651 1798q47 0 79 -32.5t32 -78.5t-32 -78t-79 -32t-78.5 31.5t-31.5 77.5t31.5 79t78.5 33zM1057 1798q47 0 78.5 -32.5t31.5 -78.5
t-31.5 -78t-78.5 -32t-79 31.5t-32 77.5t32 79t79 33z" />
    <glyph glyph-name="multiply" unicode="&#xd7;" horiz-adv-x="1363" 
d="M682 719l395 395l99 -96l-398 -397l398 -394l-99 -100l-395 397l-395 -397l-99 96l396 398l-396 393l101 100z" />
    <glyph glyph-name="Oslash" unicode="&#xd8;" horiz-adv-x="1708" 
d="M854 123q251 0 412 174.5t161 419.5t-137 409l-801 -872q155 -131 365 -131zM854 1327q-251 0 -412 -174.5t-161 -414.5t129 -402l798 870q-153 121 -354 121zM96 725q0 164 56.5 304t215.5 299t486 159q267 0 471 -154l162 178l86 -77l-162 -177q201 -214 201 -532
q0 -164 -56.5 -304t-215.5 -299t-486 -159q-284 0 -483 162l-166 -180l-82 78l166 180q-193 214 -193 522z" />
    <glyph glyph-name="Ugrave" unicode="&#xd9;" horiz-adv-x="1441" 
d="M1268 553q0 -257 -132.5 -423.5t-415 -166.5t-414.5 166t-132 424v897h172v-872q0 -314 133 -384.5t288 -70.5t242 129t87 326v872h172v-897zM862 1552h-145l-293 295h225z" />
    <glyph glyph-name="Uacute" unicode="&#xda;" horiz-adv-x="1441" 
d="M1268 553q0 -257 -132.5 -423.5t-415 -166.5t-414.5 166t-132 424v897h172v-872q0 -314 133 -384.5t288 -70.5t242 129t87 326v872h172v-897zM793 1847h225l-293 -295h-145z" />
    <glyph glyph-name="Ucircumflex" unicode="&#xdb;" horiz-adv-x="1441" 
d="M1268 553q0 -257 -132.5 -423.5t-415 -166.5t-414.5 166t-132 424v897h172v-872q0 -314 133 -384.5t288 -70.5t242 129t87 326v872h172v-897zM627 1847h186l229 -295h-165l-162 209l-160 -209h-156z" />
    <glyph glyph-name="Udieresis" unicode="&#xdc;" horiz-adv-x="1441" 
d="M1268 553q0 -257 -132.5 -423.5t-415 -166.5t-414.5 166t-132 424v897h172v-872q0 -314 133 -384.5t288 -70.5t242 129t87 326v872h172v-897zM518 1798q47 0 79 -32.5t32 -78.5t-32 -78t-79 -32t-78.5 31.5t-31.5 77.5t31.5 79t78.5 33zM924 1798q47 0 78.5 -32.5
t31.5 -78.5t-31.5 -78t-78.5 -32t-79 31.5t-32 77.5t32 79t79 33z" />
    <glyph glyph-name="Yacute" unicode="&#xdd;" horiz-adv-x="1216" 
d="M694 0h-172v625l-540 825h219l407 -655l420 655h207l-541 -825v-625zM680 1847h225l-293 -295h-145z" />
    <glyph glyph-name="Thorn" unicode="&#xde;" horiz-adv-x="1214" 
d="M180 1450h172v-256h258q353 0 430.5 -142t77.5 -258q0 -214 -144.5 -306.5t-330.5 -92.5h-291v-395h-172v1450zM352 555h291q129 0 210 58.5t81 181.5t-81 181t-210 58h-291v-479z" />
    <glyph glyph-name="germandbls" unicode="&#xdf;" horiz-adv-x="1214" 
d="M653 -25q-86 0 -145 19v145q46 -16 114 -16q142 0 236 91.5t94 249.5t-99.5 251.5t-262.5 93.5h-47v135h45q111 0 182.5 65.5t71.5 178.5t-72 175t-166 62q-165 0 -229 -93t-64 -240v-1092h-159v1106q0 321 164 394t266 73q189 0 304 -97t115 -268q0 -117 -57 -200.5
t-168 -122.5v-4q164 -15 256 -139.5t92 -295.5q0 -213 -102 -309t-192.5 -129t-176.5 -33z" />
    <glyph glyph-name="agrave" unicode="&#xe0;" horiz-adv-x="1062" 
d="M524 836q-171 0 -284 -105l-101 105q74 76 175.5 111.5t205.5 35.5q213 0 307.5 -100.5t94.5 -304.5v-412q0 -80 14 -166h-154q-10 41 -10 143h-4q-47 -74 -126 -121t-171 -47q-172 0 -273.5 76.5t-101.5 201.5q0 126 61.5 193.5t174.5 108.5t368 41h62v29
q0 104 -62.5 157.5t-175.5 53.5zM602 461q-334 0 -334 -185q0 -90 60.5 -127.5t140.5 -37.5q142 0 215.5 82t77.5 206v62h-160zM674 1188h-146l-292 295h225z" />
    <glyph glyph-name="aacute" unicode="&#xe1;" horiz-adv-x="1062" 
d="M524 836q-171 0 -284 -105l-101 105q74 76 175.5 111.5t205.5 35.5q213 0 307.5 -100.5t94.5 -304.5v-412q0 -80 14 -166h-154q-10 41 -10 143h-4q-47 -74 -126 -121t-171 -47q-172 0 -273.5 76.5t-101.5 201.5q0 126 61.5 193.5t174.5 108.5t368 41h62v29
q0 104 -62.5 157.5t-175.5 53.5zM602 461q-334 0 -334 -185q0 -90 60.5 -127.5t140.5 -37.5q142 0 215.5 82t77.5 206v62h-160zM604 1483h225l-292 -295h-146z" />
    <glyph glyph-name="acircumflex" unicode="&#xe2;" horiz-adv-x="1062" 
d="M524 836q-171 0 -284 -105l-101 105q74 76 175.5 111.5t205.5 35.5q213 0 307.5 -100.5t94.5 -304.5v-412q0 -80 14 -166h-154q-10 41 -10 143h-4q-47 -74 -126 -121t-171 -47q-172 0 -273.5 76.5t-101.5 201.5q0 126 61.5 193.5t174.5 108.5t368 41h62v29
q0 104 -62.5 157.5t-175.5 53.5zM602 461q-334 0 -334 -185q0 -90 60.5 -127.5t140.5 -37.5q142 0 215.5 82t77.5 206v62h-160zM438 1483h187l229 -295h-166l-162 209l-159 -209h-156z" />
    <glyph glyph-name="atilde" unicode="&#xe3;" horiz-adv-x="1062" 
d="M524 836q-171 0 -284 -105l-101 105q74 76 175.5 111.5t205.5 35.5q213 0 307.5 -100.5t94.5 -304.5v-412q0 -80 14 -166h-154q-10 41 -10 143h-4q-47 -74 -126 -121t-171 -47q-172 0 -273.5 76.5t-101.5 201.5q0 126 61.5 193.5t174.5 108.5t368 41h62v29
q0 104 -62.5 157.5t-175.5 53.5zM602 461q-334 0 -334 -185q0 -90 60.5 -127.5t140.5 -37.5q142 0 215.5 82t77.5 206v62h-160zM678 1343q73 0 98 91h98q-22 -146 -83.5 -179.5t-117.5 -33.5t-155 43q-31 12 -65.5 25.5t-71.5 13.5t-59.5 -28t-32.5 -63h-99q22 143 91 178
t133 35t147.5 -41t116.5 -41z" />
    <glyph glyph-name="adieresis" unicode="&#xe4;" horiz-adv-x="1062" 
d="M524 836q-171 0 -284 -105l-101 105q74 76 175.5 111.5t205.5 35.5q213 0 307.5 -100.5t94.5 -304.5v-412q0 -80 14 -166h-154q-10 41 -10 143h-4q-47 -74 -126 -121t-171 -47q-172 0 -273.5 76.5t-101.5 201.5q0 126 61.5 193.5t174.5 108.5t368 41h62v29
q0 104 -62.5 157.5t-175.5 53.5zM602 461q-334 0 -334 -185q0 -90 60.5 -127.5t140.5 -37.5q142 0 215.5 82t77.5 206v62h-160zM330 1434q47 0 78.5 -33t31.5 -79t-31.5 -78t-78.5 -32t-79 32t-32 78t32 79t79 33zM735 1434q47 0 79 -33t32 -79t-32 -78t-79 -32t-78.5 32
t-31.5 78t31.5 79t78.5 33z" />
    <glyph glyph-name="aring" unicode="&#xe5;" horiz-adv-x="1062" 
d="M524 836q-171 0 -284 -105l-101 105q74 76 175.5 111.5t205.5 35.5q213 0 307.5 -100.5t94.5 -304.5v-412q0 -80 14 -166h-154q-10 41 -10 143h-4q-47 -74 -126 -121t-171 -47q-172 0 -273.5 76.5t-101.5 201.5q0 126 61.5 193.5t174.5 108.5t368 41h62v29
q0 104 -62.5 157.5t-175.5 53.5zM602 461q-334 0 -334 -185q0 -90 60.5 -127.5t140.5 -37.5q142 0 215.5 82t77.5 206v62h-160zM533 1556q89 0 145.5 -60t56.5 -143t-57 -142.5t-145.5 -59.5t-145.5 59.5t-57 142.5t57 143t146 60zM416 1353q0 -50 35.5 -83t81 -33t81 33
t35.5 83t-35.5 83.5t-81 33.5t-81 -33.5t-35.5 -83.5z" />
    <glyph glyph-name="ae" unicode="&#xe6;" horiz-adv-x="1744" 
d="M1624 174q-154 -199 -394 -199q-102 0 -160 18.5t-128 64t-108 124.5q-103 -207 -383 -207q-141 0 -248 73.5t-107 215.5q0 301 479 301h197v25q0 104 -58 175t-164 71t-169.5 -24t-128.5 -71l-102 107q155 135 382 135q98 0 188.5 -36t143.5 -126q155 162 350 162
q196 0 320.5 -134t124.5 -368v-51h-739q0 -125 79.5 -216t198.5 -91q189 0 305 145zM532 430q-173 0 -218.5 -55.5t-45.5 -100.5q0 -79 67.5 -115t174.5 -36t184.5 78t77.5 202v27h-240zM1208 836q-123 0 -203.5 -82.5t-84.5 -188.5h567q-4 123 -80 197t-199 74z" />
    <glyph glyph-name="ccedilla" unicode="&#xe7;" horiz-adv-x="987" 
d="M834 719q-98 117 -249 117t-234 -102t-83 -252.5t89 -254.5t241 -104t238 119l118 -113q-123 -140 -325 -149l-78 -111q55 8 77 8q56 0 107 -36t51 -95q0 -102 -70.5 -146t-145.5 -44q-138 0 -226 43l35 75q72 -32 151 -32t100 29.5t21 63.5t-35.5 51t-69.5 17t-81 -16
l-41 39l113 156q-200 16 -320.5 154.5t-120.5 349.5q0 212 138.5 354.5t362.5 142.5t364 -152z" />
    <glyph glyph-name="egrave" unicode="&#xe8;" 
d="M593 -25q-230 0 -363.5 144t-133.5 363t139 360t348 141t334 -133t125 -369v-51h-774q8 -125 97 -216t205 -91t187.5 37t129.5 108l121 -94q-86 -111 -188.5 -155t-226.5 -44zM582 836q-133 0 -215 -74t-99 -197h602q-4 123 -79.5 197t-208.5 74zM711 1188h-146l-293 295
h226z" />
    <glyph glyph-name="eacute" unicode="&#xe9;" 
d="M593 -25q-230 0 -363.5 144t-133.5 363t139 360t348 141t334 -133t125 -369v-51h-774q8 -125 97 -216t205 -91t187.5 37t129.5 108l121 -94q-86 -111 -188.5 -155t-226.5 -44zM582 836q-133 0 -215 -74t-99 -197h602q-4 123 -79.5 197t-208.5 74zM641 1483h225l-293 -295
h-145z" />
    <glyph glyph-name="ecircumflex" unicode="&#xea;" 
d="M593 -25q-230 0 -363.5 144t-133.5 363t139 360t348 141t334 -133t125 -369v-51h-774q8 -125 97 -216t205 -91t187.5 37t129.5 108l121 -94q-86 -111 -188.5 -155t-226.5 -44zM582 836q-133 0 -215 -74t-99 -197h602q-4 123 -79.5 197t-208.5 74zM475 1483h187l229 -295
h-166l-162 209l-160 -209h-155z" />
    <glyph glyph-name="edieresis" unicode="&#xeb;" 
d="M593 -25q-230 0 -363.5 144t-133.5 363t139 360t348 141t334 -133t125 -369v-51h-774q8 -125 97 -216t205 -91t187.5 37t129.5 108l121 -94q-86 -111 -188.5 -155t-226.5 -44zM582 836q-133 0 -215 -74t-99 -197h602q-4 123 -79.5 197t-208.5 74zM366.5 1434
q47.5 0 79 -33t31.5 -79t-31.5 -78t-79 -32t-79 32t-31.5 78t31.5 79t79 33zM772 1434q47 0 79 -33t32 -79t-32 -78t-79 -32t-78.5 32t-31.5 78t31.5 79t78.5 33z" />
    <glyph glyph-name="igrave" unicode="&#xec;" horiz-adv-x="491" 
d="M166 958h160v-958h-160v958zM387 1188h-145l-293 295h225z" />
    <glyph glyph-name="iacute" unicode="&#xed;" horiz-adv-x="491" 
d="M166 958h160v-958h-160v958zM317 1483h226l-293 -295h-146z" />
    <glyph glyph-name="icircumflex" unicode="&#xee;" horiz-adv-x="491" 
d="M166 958h160v-958h-160v958zM152 1483h186l229 -295h-166l-161 209l-160 -209h-156z" />
    <glyph glyph-name="idieresis" unicode="&#xef;" horiz-adv-x="491" 
d="M166 958h160v-958h-160v958zM43 1434q47 0 79 -33t32 -79t-32 -78t-79 -32t-79 32t-32 78t32 79t79 33zM448.5 1434q47.5 0 79 -33t31.5 -79t-31.5 -78t-79 -32t-79 32t-31.5 78t31.5 79t79 33z" />
    <glyph glyph-name="eth" unicode="&#xf0;" horiz-adv-x="1216" 
d="M1013 980q107 -185 107 -441t-130.5 -410t-368.5 -154q-237 0 -381 142t-144 362t144 362t368 142q166 0 266 -100l3 4q-92 171 -310 389l-219 -111l-86 84l217 109q-78 78 -180 155l141 82q135 -111 187 -163l219 110l94 -80l-227 -114q193 -183 300 -368zM268 479
q0 -76 23.5 -140.5t69 -112.5t107.5 -75.5t140 -27.5t140.5 27.5t107.5 75.5t68.5 112.5t23.5 140.5t-23.5 140.5t-68.5 112.5t-107.5 76t-140.5 28t-140 -28t-107.5 -76t-69 -112.5t-23.5 -140.5z" />
    <glyph glyph-name="ntilde" unicode="&#xf1;" 
d="M614 983q190 0 281.5 -104.5t91.5 -286.5v-592h-160v575q0 121 -53 191t-166 70q-223 0 -260 -143.5t-37 -225.5v-467h-159v731l-9 227h152l4 -157h4q34 74 121 128t190 54zM715 1343q73 0 98 91h98q-22 -145 -83.5 -179t-117.5 -34t-155 43q-31 12 -65.5 25.5
t-71.5 13.5t-59.5 -28t-32.5 -63h-99q22 144 91 178.5t133 34.5t147.5 -41t116.5 -41z" />
    <glyph glyph-name="ograve" unicode="&#xf2;" horiz-adv-x="1216" 
d="M96 479.5q0 112.5 39 204.5t106.5 158.5t162 103.5t205 37t204.5 -37t161.5 -103.5t106.5 -158.5t39 -204.5t-39 -205t-106.5 -159t-161.5 -103.5t-204.5 -37t-205 37t-162 103.5t-106.5 159t-39 205zM268 479q0 -76 23.5 -140.5t69 -112.5t107.5 -75.5t140 -27.5
t140.5 27.5t107.5 75.5t68.5 112.5t23.5 140.5t-23.5 140.5t-68.5 112.5t-107.5 76t-140.5 28t-140 -28t-107.5 -76t-69 -112.5t-23.5 -140.5zM750 1188h-146l-293 295h226z" />
    <glyph glyph-name="oacute" unicode="&#xf3;" horiz-adv-x="1216" 
d="M96 479.5q0 112.5 39 204.5t106.5 158.5t162 103.5t205 37t204.5 -37t161.5 -103.5t106.5 -158.5t39 -204.5t-39 -205t-106.5 -159t-161.5 -103.5t-204.5 -37t-205 37t-162 103.5t-106.5 159t-39 205zM268 479q0 -76 23.5 -140.5t69 -112.5t107.5 -75.5t140 -27.5
t140.5 27.5t107.5 75.5t68.5 112.5t23.5 140.5t-23.5 140.5t-68.5 112.5t-107.5 76t-140.5 28t-140 -28t-107.5 -76t-69 -112.5t-23.5 -140.5zM680 1483h225l-293 -295h-145z" />
    <glyph glyph-name="ocircumflex" unicode="&#xf4;" horiz-adv-x="1216" 
d="M96 479.5q0 112.5 39 204.5t106.5 158.5t162 103.5t205 37t204.5 -37t161.5 -103.5t106.5 -158.5t39 -204.5t-39 -205t-106.5 -159t-161.5 -103.5t-204.5 -37t-205 37t-162 103.5t-106.5 159t-39 205zM268 479q0 -76 23.5 -140.5t69 -112.5t107.5 -75.5t140 -27.5
t140.5 27.5t107.5 75.5t68.5 112.5t23.5 140.5t-23.5 140.5t-68.5 112.5t-107.5 76t-140.5 28t-140 -28t-107.5 -76t-69 -112.5t-23.5 -140.5zM514 1483h186l230 -295h-166l-162 209l-160 -209h-155z" />
    <glyph glyph-name="otilde" unicode="&#xf5;" horiz-adv-x="1216" 
d="M96 479.5q0 112.5 39 204.5t106.5 158.5t162 103.5t205 37t204.5 -37t161.5 -103.5t106.5 -158.5t39 -204.5t-39 -205t-106.5 -159t-161.5 -103.5t-204.5 -37t-205 37t-162 103.5t-106.5 159t-39 205zM268 479q0 -76 23.5 -140.5t69 -112.5t107.5 -75.5t140 -27.5
t140.5 27.5t107.5 75.5t68.5 112.5t23.5 140.5t-23.5 140.5t-68.5 112.5t-107.5 76t-140.5 28t-140 -28t-107.5 -76t-69 -112.5t-23.5 -140.5zM754 1343q73 0 98 91h98q-22 -145 -83.5 -179t-117.5 -34t-155 43q-31 12 -65.5 25.5t-71.5 13.5t-59.5 -28t-32.5 -63h-99
q22 144 91 178.5t133 34.5t147.5 -41t116.5 -41z" />
    <glyph glyph-name="odieresis" unicode="&#xf6;" horiz-adv-x="1216" 
d="M96 479.5q0 112.5 39 204.5t106.5 158.5t162 103.5t205 37t204.5 -37t161.5 -103.5t106.5 -158.5t39 -204.5t-39 -205t-106.5 -159t-161.5 -103.5t-204.5 -37t-205 37t-162 103.5t-106.5 159t-39 205zM268 479q0 -76 23.5 -140.5t69 -112.5t107.5 -75.5t140 -27.5
t140.5 27.5t107.5 75.5t68.5 112.5t23.5 140.5t-23.5 140.5t-68.5 112.5t-107.5 76t-140.5 28t-140 -28t-107.5 -76t-69 -112.5t-23.5 -140.5zM405.5 1434q47.5 0 79 -33t31.5 -79t-31.5 -78t-79 -32t-79 32t-31.5 78t31.5 79t79 33zM811 1434q47 0 79 -33t32 -79t-32 -78
t-79 -32t-79 32t-32 78t32 79t79 33z" />
    <glyph glyph-name="divide" unicode="&#xf7;" horiz-adv-x="1363" 
d="M147 688h1070v-135h-1070v135zM565 959q0 48 35 82t82 34t82 -34.5t35 -82.5t-35 -82t-82 -34t-82 34.5t-35 82.5zM565 284q0 48 35 81.5t82 33.5t82 -34.5t35 -82.5t-35 -82t-82 -34t-82 35t-35 83z" />
    <glyph glyph-name="oslash" unicode="&#xf8;" horiz-adv-x="1216" 
d="M268 494q0 -140 64 -228l489 498q-84 72 -223 72t-234.5 -101t-95.5 -241zM948 464q0 140 -63 228l-490 -497q84 -72 224 -72t234.5 100.5t94.5 240.5zM215 147q-119 132 -119 342t144 352t368 142q186 0 326 -104l137 141l70 -66l-137 -141q116 -139 116 -347
q0 -207 -144 -349t-351 -142t-340 107l-140 -143l-69 65z" />
    <glyph glyph-name="ugrave" unicode="&#xf9;" 
d="M498 -25q-76 0 -211 57t-135 335v591h159v-575q0 -121 53.5 -190.5t148.5 -69.5q169 0 241.5 98.5t72.5 270.5v466h160v-731l8 -227h-151l-4 158h-4q-55 -121 -158.5 -152t-179.5 -31zM711 1188h-146l-293 295h226z" />
    <glyph glyph-name="uacute" unicode="&#xfa;" 
d="M498 -25q-76 0 -211 57t-135 335v591h159v-575q0 -121 53.5 -190.5t148.5 -69.5q169 0 241.5 98.5t72.5 270.5v466h160v-731l8 -227h-151l-4 158h-4q-55 -121 -158.5 -152t-179.5 -31zM641 1483h225l-293 -295h-145z" />
    <glyph glyph-name="ucircumflex" unicode="&#xfb;" 
d="M498 -25q-76 0 -211 57t-135 335v591h159v-575q0 -121 53.5 -190.5t148.5 -69.5q169 0 241.5 98.5t72.5 270.5v466h160v-731l8 -227h-151l-4 158h-4q-55 -121 -158.5 -152t-179.5 -31zM475 1483h187l229 -295h-166l-162 209l-160 -209h-155z" />
    <glyph glyph-name="udieresis" unicode="&#xfc;" 
d="M498 -25q-76 0 -211 57t-135 335v591h159v-575q0 -121 53.5 -190.5t148.5 -69.5q169 0 241.5 98.5t72.5 270.5v466h160v-731l8 -227h-151l-4 158h-4q-55 -121 -158.5 -152t-179.5 -31zM366.5 1434q47.5 0 79 -33t31.5 -79t-31.5 -78t-79 -32t-79 32t-31.5 78t31.5 79
t79 33zM772 1434q47 0 79 -33t32 -79t-32 -78t-79 -32t-78.5 32t-31.5 78t31.5 79t78.5 33z" />
    <glyph glyph-name="yacute" unicode="&#xfd;" horiz-adv-x="987" 
d="M176 -344q76 0 113 43t63 115l66 180l-398 964h187l297 -751h4l285 751h174l-463 -1177q-60 -146 -123.5 -209.5t-196.5 -63.5q-91 0 -143 25l20 139q39 -16 115 -16zM565 1483h226l-293 -295h-146z" />
    <glyph glyph-name="thorn" unicode="&#xfe;" horiz-adv-x="1251" 
d="M307 819q139 164 354 164t354.5 -143.5t139.5 -360t-138 -360.5t-341 -144q-129 0 -226.5 56.5t-142.5 138.5h-4v-637h-160v2015h160v-729h4zM303 479q0 -76 23.5 -140.5t68.5 -112.5t107.5 -75.5t140.5 -27.5t140.5 27.5t107.5 75.5t68.5 112.5t23.5 140.5t-23.5 140.5
t-68.5 112.5t-107.5 76t-140.5 28t-140.5 -28t-107.5 -76t-68.5 -112.5t-23.5 -140.5z" />
    <glyph glyph-name="ydieresis" unicode="&#xff;" horiz-adv-x="987" 
d="M176 -344q76 0 113 43t63 115l66 180l-398 964h187l297 -751h4l285 751h174l-463 -1177q-60 -146 -123.5 -209.5t-196.5 -63.5q-91 0 -143 25l20 139q39 -16 115 -16zM291 1434q47 0 78.5 -33t31.5 -79t-31.5 -78t-78.5 -32t-79 32t-32 78t32 79t79 33zM696 1434
q47 0 79 -33t32 -79t-32 -78t-79 -32t-78.5 32t-31.5 78t31.5 79t78.5 33z" />
    <glyph glyph-name="dotlessi" unicode="&#x131;" horiz-adv-x="491" 
d="M166 958h160v-958h-160v958z" />
    <glyph glyph-name="Lslash" unicode="&#x141;" horiz-adv-x="1024" 
d="M180 1450h172v-688l443 381v-162l-443 -381v-440h664v-160h-836v453l-160 -138v162l160 137v836z" />
    <glyph glyph-name="lslash" unicode="&#x142;" horiz-adv-x="491" 
d="M166 1548h160v-590l166 166v-166l-166 -165v-793h-160v631l-166 -166v168l166 166v749z" />
    <glyph glyph-name="OE" unicode="&#x152;" horiz-adv-x="1972" 
d="M1233 836h577v-160h-577v-516h627v-160h-942q-381 0 -542 161t-212 292t-51 272t51 272t212 292t542 161h929v-160h-614v-454zM1061 1290h-135q-305 0 -467 -167t-162 -398t162 -398t467 -167h135v1130z" />
    <glyph glyph-name="oe" unicode="&#x153;" horiz-adv-x="1857" 
d="M967 172q-149 -197 -386 -197t-372 139t-135 362t138 365t355 142q129 0 225.5 -45t174.5 -147q150 193 358 193t333.5 -134t125.5 -369v-51h-740q0 -125 80 -216t199 -91q189 0 305 145l121 -94q-86 -111 -188.5 -155t-222.5 -44q-252 0 -371 197zM329.5 226
q83.5 -103 238.5 -103t242 101.5t87 252.5t-85 255t-237.5 104t-240.5 -100.5t-88 -253.5t83.5 -256zM1333 836q-123 0 -202.5 -81.5t-86.5 -189.5h568q-4 123 -80 197t-199 74z" />
    <glyph glyph-name="Scaron" unicode="&#x160;" 
d="M614 1327q-134 0 -226.5 -60t-92.5 -171t63.5 -167t241.5 -112q84 -27 163 -57.5t175 -105t96 -273.5q0 -198 -147.5 -308t-361.5 -110t-312 73t-135 128l147 121q47 -80 131 -121t159 -41q139 0 237 67.5t98 184.5q0 68 -22.5 109.5t-69.5 72.5t-119 55.5t-159 53.5
q-187 62 -278 149.5t-91 253.5q0 198 145.5 308t347.5 110q261 0 406 -170l-142 -123q-43 70 -114.5 101.5t-139.5 31.5zM664 1552h-187l-227 295h166l159 -209l158 209h156z" />
    <glyph glyph-name="scaron" unicode="&#x161;" horiz-adv-x="872" 
d="M172 252q104 -129 222 -129q110 0 154 26.5t62.5 54t18.5 80.5t-53 85.5t-137 49.5q-179 37 -266 92.5t-87 190.5q0 134 109.5 207.5t230.5 73.5q252 0 344 -174l-133 -88q-70 115 -196 115t-160.5 -50.5t-34.5 -82.5q0 -55 68.5 -88.5t152.5 -48.5q168 -30 251 -94
t83 -206t-111.5 -216.5t-253.5 -74.5q-141 0 -230 38t-161 141zM530 1188h-186l-227 295h166l159 -209l158 209h156z" />
    <glyph glyph-name="Ydieresis" unicode="&#x178;" horiz-adv-x="1216" 
d="M694 0h-172v625l-540 825h219l407 -655l420 655h207l-541 -825v-625zM405.5 1798q47.5 0 79 -32.5t31.5 -78.5t-31.5 -78t-79 -32t-79 31.5t-31.5 77.5t31.5 79t79 33zM811 1798q47 0 79 -32.5t32 -78.5t-32 -78t-79 -32t-79 31.5t-32 77.5t32 79t79 33z" />
    <glyph glyph-name="Zcaron" unicode="&#x17d;" horiz-adv-x="1175" 
d="M72 1290v160h1034v-147l-838 -1143h848v-160h-1057v154l838 1136h-825zM682 1552h-186l-228 295h166l160 -209l158 209h155z" />
    <glyph glyph-name="zcaron" unicode="&#x17e;" horiz-adv-x="909" 
d="M86 823v135h748v-122l-564 -701h578v-135h-787v125l564 698h-539zM549 1188h-187l-227 295h166l160 -209l157 209h156z" />
    <glyph glyph-name="florin" unicode="&#x192;" 
d="M883 870v-135h-258l-133 -704q-30 -156 -107 -241t-229 -85q-98 0 -176 49l73 129q43 -30 100 -30q93 0 128 59.5t51 159.5l123 663h-222v135h248l43 226q34 181 82.5 248t107 99t156.5 32t195 -58l-76 -127q-62 37 -114 37q-90 0 -125 -60.5t-58 -170.5l-43 -226h234z
" />
    <glyph glyph-name="circumflex" unicode="&#x2c6;" horiz-adv-x="491" 
d="M152 1450h186l229 -295h-166l-161 209l-160 -209h-156z" />
    <glyph glyph-name="caron" unicode="&#x2c7;" horiz-adv-x="491" 
d="M340 1155h-186l-228 295h166l160 -209l158 209h155z" />
    <glyph glyph-name="uni02C9" unicode="&#x2c9;" horiz-adv-x="491" 
d="M528 1229h-565v123h565v-123z" />
    <glyph glyph-name="breve" unicode="&#x2d8;" horiz-adv-x="491" 
d="M250 1278q84 0 136 35t75 125h98q-14 -135 -99 -203t-215 -68t-217 68t-96 203h101q16 -80 74.5 -120t142.5 -40z" />
    <glyph glyph-name="dotaccent" unicode="&#x2d9;" horiz-adv-x="491" 
d="M246 1401q47 0 78.5 -33t31.5 -79t-31.5 -77.5t-78.5 -31.5t-79 31.5t-32 77.5t32 79t79 33z" />
    <glyph glyph-name="ring" unicode="&#x2da;" horiz-adv-x="491" 
d="M247 1524q89 0 145.5 -60.5t56.5 -143.5t-57.5 -142.5t-145.5 -59.5t-145.5 59.5t-57.5 142.5t57.5 143.5t146.5 60.5zM129 1320q0 -50 36 -83t81 -33t80.5 33t35.5 83t-35.5 84t-80.5 34t-81 -34t-36 -84z" />
    <glyph glyph-name="ogonek" unicode="&#x2db;" horiz-adv-x="491" 
d="M416 -373q-84 -80 -176 -80q-91 0 -147 49.5t-56 125.5q0 75 57 154.5t129 123.5h105q-100 -70 -128 -134.5t-28 -103.5t24.5 -66.5t78.5 -26.5t98 42z" />
    <glyph glyph-name="tilde" unicode="&#x2dc;" horiz-adv-x="491" 
d="M391 1311q74 0 98 90h99q-22 -144 -84 -178.5t-118 -34.5t-155 43q-31 12 -65.5 25.5t-71.5 13.5t-59.5 -28t-32.5 -62h-98q22 141 91 177t115 36t88 -15.5t78 -29.5t59 -25.5t56 -11.5z" />
    <glyph glyph-name="hungarumlaut" unicode="&#x2dd;" horiz-adv-x="491" 
d="M92 1155h-137l205 295h196zM414 1155h-140l224 295h209z" />
    <glyph glyph-name="uni03A9" unicode="&#x3a9;" horiz-adv-x="1474" 
d="M129 799q0 131 47 258t174 268t393 141q137 0 248 -56t230.5 -200t119.5 -439t-113.5 -444t-166.5 -194v-6h309v-127h-491v94q206 141 256.5 340.5t50.5 311.5q0 231 -118 411t-323 180t-332.5 -166t-127.5 -401t91 -415t216 -261v-94h-492v127h306v6q-277 247 -277 666z
" />
    <glyph glyph-name="uni03BC" unicode="&#x3bc;" 
d="M516 -25q-121 0 -205 52v-494h-159v1425h159v-575q0 -121 53.5 -190.5t148.5 -69.5q169 0 241.5 98.5t72.5 270.5v466h160v-731l8 -227h-151l-4 158h-4q-55 -121 -158 -152t-162 -31z" />
    <glyph glyph-name="pi" unicode="&#x3c0;" horiz-adv-x="1169" 
d="M313 1075h815l-14 -133h-164v-639q0 -184 29 -303h-150q-34 66 -34 291v651h-371q-14 -351 -67.5 -609.5t-82.5 -332.5h-151q89 258 116 548t31 394q-158 0 -227 -27l-25 105q93 55 295 55z" />
    <glyph glyph-name="endash" unicode="&#x2013;" horiz-adv-x="1024" 
d="M1024 418h-1024v147h1024v-147z" />
    <glyph glyph-name="emdash" unicode="&#x2014;" horiz-adv-x="2048" 
d="M0 565h2048v-147h-2048v147z" />
    <glyph glyph-name="quoteleft" unicode="&#x2018;" horiz-adv-x="569" 
d="M291 1450h155l-137 -492h-186z" />
    <glyph glyph-name="quoteright" unicode="&#x2019;" horiz-adv-x="569" 
d="M279 958h-156l137 492h186z" />
    <glyph glyph-name="quotesinglbase" unicode="&#x201a;" horiz-adv-x="569" 
d="M279 -283h-156l137 492h186z" />
    <glyph glyph-name="quotedblleft" unicode="&#x201c;" horiz-adv-x="1062" 
d="M346 1450h156l-137 -492h-187zM729 1450h156l-137 -492h-187z" />
    <glyph glyph-name="quotedblright" unicode="&#x201d;" horiz-adv-x="1062" 
d="M334 958h-156l137 492h187zM717 958h-156l137 492h187z" />
    <glyph glyph-name="quotedblbase" unicode="&#x201e;" horiz-adv-x="1062" 
d="M334 -283h-156l137 492h187zM717 -283h-156l137 492h187z" />
    <glyph glyph-name="dagger" unicode="&#x2020;" 
d="M649 1034h418v-135h-418v-1157h-160v1157h-417v135h417v416h160v-416z" />
    <glyph glyph-name="daggerdbl" unicode="&#x2021;" 
d="M649 1057h406v-135h-406v-652h406v-135h-406v-393h-160v393h-405v135h405v652h-405v135h405v393h160v-393z" />
    <glyph glyph-name="bullet" unicode="&#x2022;" horiz-adv-x="1024" 
d="M150 725q0 76 28.5 141.5t77.5 114.5t114.5 77.5t141.5 28.5t141.5 -28.5t114.5 -77.5t77.5 -114.5t28.5 -141.5t-28.5 -141.5t-77.5 -114.5t-114.5 -78t-141.5 -29t-141.5 29t-114.5 78t-77.5 114.5t-28.5 141.5z" />
    <glyph glyph-name="ellipsis" unicode="&#x2026;" horiz-adv-x="2048" 
d="M342 233q51 0 87 -35.5t36 -87t-38 -87t-85 -35.5t-85 35.5t-38 87t36 87t87 35.5zM1024 233q51 0 87 -35.5t36 -87t-38 -87t-85 -35.5t-85 35.5t-38 87t36 87t87 35.5zM1706 233q51 0 87 -35.5t36 -87t-38 -87t-85 -35.5t-85 35.5t-38 87t36 87t87 35.5z" />
    <glyph glyph-name="perthousand" unicode="&#x2030;" horiz-adv-x="2084" 
d="M668 296q0 132 95 227t225.5 95t226.5 -94.5t96 -227.5q0 -132 -94.5 -226.5t-227 -94.5t-227 94.5t-94.5 226.5zM803 297q0 -37 15.5 -70.5t41 -59.5t59 -41t70.5 -15t71 15t59.5 41t41 59.5t15.5 70.5t-15.5 70.5t-41 59.5t-59.5 41t-71 15t-70.5 -15t-59 -41
t-41 -59.5t-15.5 -70.5zM1405 296q0 132 95 227t226.5 95t226.5 -95t95 -227t-94.5 -226.5t-227 -94.5t-227 94.5t-94.5 226.5zM1540 295q0 -37 15.5 -71t41 -59.5t59.5 -40.5t70.5 -15t70.5 15t59.5 40.5t41 59.5t15.5 71t-15.5 70.5t-41 59.5t-59.5 41t-70.5 15t-70.5 -15
t-59.5 -41t-41 -59.5t-15.5 -70.5zM37 1152q0 132 95.5 227.5t226 95.5t226 -95.5t95.5 -227.5t-94.5 -226.5t-227 -94.5t-227 94.5t-94.5 226.5zM172 1153q0 -37 15.5 -70.5t41 -59.5t59.5 -41t70.5 -15t70.5 15t59.5 41t41 59.5t15.5 70.5t-15.5 70.5t-41 59.5t-59.5 41
t-70.5 15t-70.5 -15t-59.5 -41t-41 -59.5t-15.5 -70.5zM1075 1516l113 -66l-909 -1516l-113 66z" />
    <glyph glyph-name="guilsinglleft" unicode="&#x2039;" horiz-adv-x="643" 
d="M285 492l239 -365l-112 -74l-293 439l293 438l112 -74z" />
    <glyph glyph-name="guilsinglright" unicode="&#x203a;" horiz-adv-x="643" 
d="M358 492l-239 364l112 74l293 -438l-293 -439l-112 74z" />
    <glyph glyph-name="fraction" unicode="&#x2044;" horiz-adv-x="342" 
d="M569 1516l113 -66l-909 -1516l-113 66z" />
    <glyph glyph-name="Euro" unicode="&#x20ac;" 
d="M781 1333q-148 0 -248.5 -89t-145.5 -263h567l-30 -121h-559q-11 -102 -11 -158t4 -112h496l-33 -117h-448q61 -360 346 -360q152 0 258 127l94 -93q-53 -72 -149.5 -122t-214.5 -50q-209 0 -339 126t-171 372h-150l37 117h98q-4 58 -4 129t8 141h-135l39 121h119
q57 239 208 366.5t355 127.5q86 0 171 -22.5t132 -51.5l-43 -144q-103 76 -251 76z" />
    <glyph glyph-name="afii61289" unicode="&#x2113;" horiz-adv-x="993" 
d="M565 -14q-168 0 -252 109.5t-88 273.5v26q-29 -23 -58.5 -48t-60.5 -48l-47 90q123 101 164 141v568q0 256 92 375.5t220 119.5t193 -94t65 -242q0 -195 -116 -383t-306 -374v-70q0 -160 64.5 -240.5t155.5 -80.5t165.5 59.5t115.5 140.5l74 -65q-136 -258 -381 -258z
M686 1268q0 210 -147 209q-66 0 -117 -87.5t-51 -281.5v-455q144 161 205 267t85.5 183t24.5 165z" />
    <glyph glyph-name="trademark" unicode="&#x2122;" horiz-adv-x="2027" 
d="M397 1315h-266v135h668v-135h-267v-709h-135v709zM969 1450h215l252 -641l252 641h208v-844h-135v709h-4l-278 -709h-93l-278 709h-4v-709h-135v844z" />
    <glyph glyph-name="Omega" unicode="&#x2126;" horiz-adv-x="1474" 
d="M129 799q0 131 47 258t174 268t393 141q137 0 248 -56t230.5 -200t119.5 -439t-113.5 -444t-166.5 -194v-6h309v-127h-491v94q206 141 256.5 340.5t50.5 311.5q0 231 -118 411t-323 180t-332.5 -166t-127.5 -401t91 -415t216 -261v-94h-492v127h306v6q-277 247 -277 666z
" />
    <glyph glyph-name="estimated" unicode="&#x212e;" horiz-adv-x="1808" 
d="M387 705q-10 0 -10 -11v-407q0 -25 16 -47q98 -102 229.5 -162t287.5 -60t293.5 68t236.5 180h121q-113 -131 -285 -210t-360 -79t-339 58.5t-263.5 160t-178 237.5t-65.5 292t65.5 292t178 237.5t264 161t323.5 59.5t324.5 -59.5t265.5 -161t178.5 -237.5t65.5 -292v-20
h-1348zM1421 743q9 0 9 15v409q0 29 -21 50q-213 213 -506 213q-147 0 -278 -59.5t-230 -160.5q-18 -23 -18 -51v-401q0 -15 10 -15h1034z" />
    <glyph glyph-name="partialdiff" unicode="&#x2202;" horiz-adv-x="1120" 
d="M156 1505q146 117 352 117q207 0 357.5 -204t150.5 -581t-140 -615t-395 -238q-188 0 -290.5 141t-102.5 355q0 215 127.5 362t308.5 147q126 0 214 -64t122 -132h2q4 18 4 25v65q0 269 -112 439.5t-265 170.5t-280 -100zM496 113q137 0 231.5 152t116.5 374
q-24 79 -105.5 152t-199.5 73t-207.5 -118t-89.5 -283q0 -241 97 -295.5t155 -54.5h2z" />
    <glyph glyph-name="Delta" unicode="&#x2206;" horiz-adv-x="1327" 
d="M1262 0h-1199v106l515 1377h178l506 -1377v-106zM1096 127l-297 791q-12 41 -31.5 93t-54 143.5t-49.5 148.5h-9q-6 -29 -21.5 -72t-32.5 -92t-35.5 -98.5t-30.5 -90.5l-314 -823h875z" />
    <glyph glyph-name="product" unicode="&#x220f;" horiz-adv-x="1433" 
d="M1153 1303v-1502h-152v1502h-573v-1502h-152v1502h-223v141h1325v-141h-225z" />
    <glyph glyph-name="summation" unicode="&#x2211;" horiz-adv-x="1132" 
d="M47 -199v103l551 717l-526 714v109h983v-133h-770v-8l489 -660l-530 -690v-6h843v-146h-1040z" />
    <glyph glyph-name="minus" unicode="&#x2212;" horiz-adv-x="1363" 
d="M1217 688v-135h-1070v135h1070z" />
    <glyph glyph-name="uni2215" unicode="&#x2215;" horiz-adv-x="342" 
d="M569 1516l113 -66l-909 -1516l-113 66z" />
    <glyph glyph-name="uni2219" unicode="&#x2219;" horiz-adv-x="569" 
d="M284.5 756q51.5 0 87.5 -36t36 -87t-38 -87t-85 -36t-85 36t-38 87t35.5 87t87 36z" />
    <glyph glyph-name="radical" unicode="&#x221a;" horiz-adv-x="1173" 
d="M717 -309h-135l-328 960l-154 -59l-30 94l280 111l262 -770q21 -78 35 -150h2q4 29 12.5 70t14.5 80l383 1689h115z" />
    <glyph glyph-name="infinity" unicode="&#x221e;" horiz-adv-x="1597" 
d="M1491 598q0 -142 -91.5 -234t-205.5 -92t-199.5 60.5t-193.5 183.5q-105 -121 -190.5 -182.5t-204.5 -61.5t-210.5 93.5t-91.5 228.5t92.5 229.5t234.5 94.5t238.5 -98.5t137.5 -147.5q105 121 188.5 183.5t204.5 62.5t206 -87t85 -231v-2zM428 369q116 0 200.5 92
t116.5 127q-35 43 -114 139t-219 96q-141 0 -173 -93t-32 -140q2 -92 61.5 -156.5t157.5 -64.5h2zM1180 823q-118 0 -206.5 -99t-115.5 -126q102 -115 173 -172t137 -57q108 0 164.5 67t56.5 167t-58.5 160t-148.5 60h-2z" />
    <glyph glyph-name="integral" unicode="&#x222b;" horiz-adv-x="733" 
d="M426 1231q0 -204 14.5 -525t14.5 -502q0 -289 -88 -431q-35 -53 -90.5 -80t-123.5 -27t-124 35l26 113q58 -25 89 -25q60 0 100 47q69 93 69 333q0 241 -14 556t-14 503q0 338 94 437q94 100 209 100q67 0 112 -28l-26 -109q-28 23 -64 23q-76 0 -115 -48
q-69 -87 -69 -372z" />
    <glyph glyph-name="approxequal" unicode="&#x2248;" horiz-adv-x="1155" 
d="M795 639q-63 0 -115 22.5t-112 57.5t-106 55.5t-109 20.5t-108.5 -46.5t-84.5 -107.5l-66 55q47 90 119 143.5t155 53.5t139 -31.5t104 -57.5t90.5 -47.5t102.5 -21.5t104 40t87 114l64 -55q-98 -195 -264 -195zM353 446q-63 0 -109.5 -48t-83.5 -107l-66 55
q47 92 120 144.5t156 52.5t138 -30.5t102 -56.5t90.5 -47.5t103.5 -21.5t103 39t88 113l64 -56q-99 -194 -264 -194q-63 0 -114 22.5t-113 57.5t-107 56t-108 21z" />
    <glyph glyph-name="notequal" unicode="&#x2260;" horiz-adv-x="1155" 
d="M1049 838v-101h-361l-139 -301h500v-98h-541l-111 -244l-80 37l95 207h-308v98h351l137 301h-488v101h527l108 237l80 -35l-92 -202h322z" />
    <glyph glyph-name="lessequal" unicode="&#x2264;" horiz-adv-x="1155" 
d="M117 664v106l925 463v-121l-819 -391v-4l821 -398v-118zM104 12v103h945v-103h-945z" />
    <glyph glyph-name="greaterequal" unicode="&#x2265;" horiz-adv-x="1155" 
d="M1044 770v-106l-925 -463v118l817 396v4l-817 393v121zM106 12v103h943v-103h-943z" />
    <glyph glyph-name="lozenge" unicode="&#x25ca;" horiz-adv-x="1173" 
d="M647 -94h-125l-409 815l413 815h125l410 -815zM627 1296q-10 27 -21.5 56.5t-17.5 52.5h-4q-23 -71 -41 -109l-291 -571l295 -584q28 -63 37 -106h6q24 81 37 104l293 578z" />
    </font>
</defs>
</svg>
